<svg width="49" height="45" viewBox="0 0 49 45" fill="none" xmlns="http://www.w3.org/2000/svg">
<path fill-rule="evenodd" clip-rule="evenodd" d="M15.0195 37.0895L24.0698 31.7132L33.12 37.0895L30.7371 26.9526L38.7283 20.1316L37.0434 19.9915L40.5233 16.5116L48.1395 17.1474L34.9974 28.35L38.9449 45L24.0698 36.1658L9.19465 45L13.118 28.35L0 17.1474L17.3062 15.7026L24.0698 0L27.4516 7.85132L29.1425 11.777L29.2752 12.0852L26.3568 15.0036L26.1277 14.4711L24.0698 9.68684L19.9538 19.2553L9.41128 20.1316L17.4024 26.9526L15.0195 37.0895Z" fill="#1199D3"/>
<path d="M40.7858 14.8479L39.1152 13.2089L41.0566 11.3054L42.6703 12.8886L43.8605 11.7219L37.4358 5.41858L36.2467 6.58522L37.8604 8.16844L35.919 10.0731L34.2485 8.43413L19.8054 22.6044L19.6672 28.5076L17.9439 30.1984C17.4214 30.711 17.1631 31.4352 17.2433 32.1628L20.3169 29.1472L26.3338 29.0116L40.7858 14.8479ZM38.8823 14.8479L31.5449 22.0468L26.9222 17.5114L28.7878 15.6789L31.1058 17.9531L32.0865 16.991L29.7685 14.7167L31.4958 13.022L33.8139 15.2962L34.7946 14.334L32.4765 12.0598L34.2529 10.3169L38.8823 14.8479Z" fill="#1433B9"/>
</svg>
