<svg width="50" height="51" viewBox="0 0 50 51" fill="none" xmlns="http://www.w3.org/2000/svg">
<rect y="0.503906" width="50" height="50" rx="16" fill="white"/>
<path fill-rule="evenodd" clip-rule="evenodd" d="M25 25.6289C25.1989 25.6289 25.3897 25.7079 25.5303 25.8486C25.671 25.9892 25.75 26.18 25.75 26.3789V27.1289H26.5C26.6989 27.1289 26.8897 27.2079 27.0303 27.3486C27.171 27.4892 27.25 27.68 27.25 27.8789C27.25 28.0778 27.171 28.2686 27.0303 28.4092C26.8897 28.5499 26.6989 28.6289 26.5 28.6289H25.75V29.3789C25.75 29.5778 25.671 29.7686 25.5303 29.9092C25.3897 30.0499 25.1989 30.1289 25 30.1289C24.8011 30.1289 24.6103 30.0499 24.4697 29.9092C24.329 29.7686 24.25 29.5778 24.25 29.3789V28.6289H23.5C23.3011 28.6289 23.1103 28.5499 22.9697 28.4092C22.829 28.2686 22.75 28.0778 22.75 27.8789C22.75 27.68 22.829 27.4892 22.9697 27.3486C23.1103 27.2079 23.3011 27.1289 23.5 27.1289H24.25V26.3789C24.25 26.18 24.329 25.9892 24.4697 25.8486C24.6103 25.7079 24.8011 25.6289 25 25.6289Z" fill="#0F2FB8"/>
<path fill-rule="evenodd" clip-rule="evenodd" d="M24.948 15.1289C24.049 15.1289 23.3 15.1289 22.706 15.2089C22.078 15.2929 21.511 15.4789 21.056 15.9339C20.6 16.3899 20.414 16.9569 20.33 17.5839C20.25 18.1789 20.25 18.9289 20.25 19.8269V19.9049C18.229 19.9709 17.015 20.2069 16.172 21.0509C15 22.2219 15 24.1079 15 27.8789C15 31.6499 15 33.5359 16.172 34.7069C17.343 35.8789 19.229 35.8789 23 35.8789H27C30.771 35.8789 32.657 35.8789 33.828 34.7069C35 33.5359 35 31.6499 35 27.8789C35 24.1079 35 22.2219 33.828 21.0509C32.985 20.2069 31.771 19.9709 29.75 19.9049V19.8269C29.75 18.9289 29.75 18.1789 29.67 17.5849C29.586 16.9569 29.4 16.3899 28.944 15.9349C28.489 15.4789 27.922 15.2929 27.294 15.2089C26.7 15.1289 25.95 15.1289 25.052 15.1289H24.948ZM28.25 19.8809V19.8789C28.25 18.9149 28.248 18.2669 28.184 17.7839C28.121 17.3229 28.014 17.1249 27.884 16.9949C27.754 16.8649 27.556 16.7579 27.094 16.6949C26.612 16.6309 25.964 16.6289 25 16.6289C24.036 16.6289 23.388 16.6309 22.905 16.6959C22.444 16.7579 22.246 16.8649 22.116 16.9959C21.986 17.1259 21.879 17.3229 21.816 17.7839C21.753 18.2669 21.75 18.9149 21.75 19.8789V19.8809C22.142 19.8789 22.558 19.8789 23 19.8789H27C27.442 19.8789 27.858 19.8789 28.25 19.8809ZM29 27.8789C29 28.9398 28.5786 29.9572 27.8284 30.7073C27.0783 31.4575 26.0609 31.8789 25 31.8789C23.9391 31.8789 22.9217 31.4575 22.1716 30.7073C21.4214 29.9572 21 28.9398 21 27.8789C21 26.818 21.4214 25.8006 22.1716 25.0505C22.9217 24.3003 23.9391 23.8789 25 23.8789C26.0609 23.8789 27.0783 24.3003 27.8284 25.0505C28.5786 25.8006 29 26.818 29 27.8789Z" fill="#0F2FB8"/>
</svg>
