<svg width="606" height="601" viewBox="0 0 606 601" fill="none" xmlns="http://www.w3.org/2000/svg">
<g filter="url(#filter0_d_2053_1253)">
<rect x="32" y="8.46045" width="542" height="536" rx="24" fill="white" shape-rendering="crispEdges"/>
<path d="M65.3047 59.4604V47.937H67.3203L73.3203 56.5308V47.937H75.1562V59.4604H73.1406L67.1406 50.8823V59.4604H65.3047ZM79.7266 59.7026C78.9609 59.7026 78.3229 59.4839 77.8125 59.0464C77.3073 58.6089 77.0547 57.9995 77.0547 57.2183C77.0547 56.7391 77.1562 56.3146 77.3594 55.9448C77.5625 55.5698 77.8464 55.2651 78.2109 55.0308C78.5755 54.7912 78.9766 54.6011 79.4141 54.4604C79.8516 54.3146 80.3359 54.2104 80.8672 54.1479L82.2734 53.9917V53.8276C82.2734 53.3485 82.1198 52.9891 81.8125 52.7495C81.5052 52.5099 81.125 52.3901 80.6719 52.3901C80.2083 52.3901 79.8229 52.5099 79.5156 52.7495C79.2135 52.9891 79.0391 53.312 78.9922 53.7183H77.1641C77.2318 52.8068 77.5885 52.1011 78.2344 51.6011C78.8802 51.1011 79.7083 50.8511 80.7188 50.8511C81.0625 50.8511 81.388 50.8823 81.6953 50.9448C82.0078 51.0073 82.3125 51.1141 82.6094 51.2651C82.9062 51.4162 83.1615 51.6089 83.375 51.8433C83.5938 52.0724 83.7682 52.3719 83.8984 52.7417C84.0286 53.1063 84.0938 53.5229 84.0938 53.9917V57.0151C84.0938 57.7078 84.1328 58.5229 84.2109 59.4604H82.3672V58.1636C81.7422 59.1896 80.862 59.7026 79.7266 59.7026ZM78.9141 57.062C78.9141 57.3849 79.026 57.6506 79.25 57.8589C79.474 58.062 79.7656 58.1636 80.125 58.1636C80.7083 58.1636 81.2109 57.9396 81.6328 57.4917C82.0599 57.0386 82.2734 56.437 82.2734 55.687V55.3042L80.7656 55.5386C80.151 55.6271 79.6875 55.8042 79.375 56.0698C79.0677 56.3302 78.9141 56.661 78.9141 57.062ZM86.2969 59.4604V51.0933H88.1406V52.1323C88.349 51.7834 88.6562 51.4839 89.0625 51.2339C89.474 50.9787 89.9661 50.8511 90.5391 50.8511C91.0807 50.8511 91.5573 50.9735 91.9688 51.2183C92.3802 51.4578 92.6979 51.7938 92.9219 52.2261C93.1615 51.8563 93.5208 51.536 94 51.2651C94.4844 50.9891 95.0156 50.8511 95.5938 50.8511C96.4896 50.8511 97.1901 51.1427 97.6953 51.7261C98.2057 52.3042 98.4609 53.0542 98.4609 53.9761V59.4604H96.5547V54.2729C96.5547 53.7521 96.4245 53.3381 96.1641 53.0308C95.9036 52.7183 95.5443 52.562 95.0859 52.562C94.5859 52.562 94.1667 52.7391 93.8281 53.0933C93.4896 53.4474 93.3203 53.9214 93.3203 54.5151V59.4604H91.4219V54.2729C91.4219 53.7573 91.2917 53.3433 91.0312 53.0308C90.776 52.7183 90.4193 52.562 89.9609 52.562C89.4557 52.562 89.0365 52.7391 88.7031 53.0933C88.3698 53.4474 88.2031 53.9214 88.2031 54.5151V59.4604H86.2969ZM104.406 59.7026C103.828 59.7026 103.284 59.6011 102.773 59.3979C102.268 59.1896 101.828 58.8979 101.453 58.5229C101.078 58.1479 100.781 57.6818 100.562 57.1245C100.349 56.562 100.242 55.9422 100.242 55.2651C100.242 54.5933 100.354 53.9787 100.578 53.4214C100.802 52.8589 101.104 52.3927 101.484 52.0229C101.865 51.6532 102.305 51.3667 102.805 51.1636C103.31 50.9552 103.844 50.8511 104.406 50.8511C105.688 50.8511 106.701 51.3094 107.445 52.2261C108.19 53.1427 108.477 54.3172 108.305 55.7495H102.086C102.159 56.5151 102.406 57.0959 102.828 57.4917C103.25 57.8875 103.776 58.0854 104.406 58.0854C104.885 58.0854 105.297 57.9787 105.641 57.7651C105.984 57.5464 106.216 57.2417 106.336 56.8511H108.273C108.086 57.7417 107.643 58.4396 106.945 58.9448C106.253 59.45 105.406 59.7026 104.406 59.7026ZM102.148 54.3901H106.375C106.344 53.7808 106.146 53.3094 105.781 52.9761C105.422 52.6375 104.958 52.4683 104.391 52.4683C103.844 52.4683 103.367 52.6323 102.961 52.9604C102.56 53.2834 102.289 53.7599 102.148 54.3901ZM118 59.7026C117.5 59.7026 117.026 59.6037 116.578 59.4058C116.13 59.2078 115.734 58.9266 115.391 58.562C115.047 58.1922 114.773 57.7235 114.57 57.1558C114.372 56.5881 114.273 55.9578 114.273 55.2651C114.273 54.5776 114.372 53.9526 114.57 53.3901C114.773 52.8224 115.047 52.3563 115.391 51.9917C115.734 51.6271 116.13 51.3459 116.578 51.1479C117.026 50.95 117.5 50.8511 118 50.8511C118.568 50.8511 119.068 50.9631 119.5 51.187C119.938 51.4058 120.292 51.7052 120.562 52.0854V47.5386H122.469V59.4604H120.625V58.3901C120.37 58.786 120.018 59.1037 119.57 59.3433C119.122 59.5828 118.599 59.7026 118 59.7026ZM116.195 55.2651C116.195 56.1349 116.398 56.8042 116.805 57.2729C117.216 57.7417 117.737 57.9761 118.367 57.9761C118.997 57.9761 119.521 57.7391 119.938 57.2651C120.354 56.786 120.562 56.1193 120.562 55.2651C120.562 54.4006 120.354 53.7365 119.938 53.2729C119.526 52.8094 119.003 52.5776 118.367 52.5776C117.737 52.5776 117.216 52.8094 116.805 53.2729C116.398 53.7365 116.195 54.4006 116.195 55.2651ZM128.453 59.7026C127.875 59.7026 127.331 59.6011 126.82 59.3979C126.315 59.1896 125.875 58.8979 125.5 58.5229C125.125 58.1479 124.828 57.6818 124.609 57.1245C124.396 56.562 124.289 55.9422 124.289 55.2651C124.289 54.5933 124.401 53.9787 124.625 53.4214C124.849 52.8589 125.151 52.3927 125.531 52.0229C125.911 51.6532 126.352 51.3667 126.852 51.1636C127.357 50.9552 127.891 50.8511 128.453 50.8511C129.734 50.8511 130.747 51.3094 131.492 52.2261C132.237 53.1427 132.523 54.3172 132.352 55.7495H126.133C126.206 56.5151 126.453 57.0959 126.875 57.4917C127.297 57.8875 127.823 58.0854 128.453 58.0854C128.932 58.0854 129.344 57.9787 129.688 57.7651C130.031 57.5464 130.263 57.2417 130.383 56.8511H132.32C132.133 57.7417 131.69 58.4396 130.992 58.9448C130.299 59.45 129.453 59.7026 128.453 59.7026ZM126.195 54.3901H130.422C130.391 53.7808 130.193 53.3094 129.828 52.9761C129.469 52.6375 129.005 52.4683 128.438 52.4683C127.891 52.4683 127.414 52.6323 127.008 52.9604C126.607 53.2834 126.336 53.7599 126.195 54.3901ZM137.359 59.7026C137 59.7026 136.654 59.6662 136.32 59.5933C135.992 59.5256 135.674 59.4136 135.367 59.2573C135.065 59.1011 134.799 58.9084 134.57 58.6792C134.346 58.45 134.161 58.1688 134.016 57.8354C133.87 57.4969 133.789 57.1219 133.773 56.7104H135.648C135.669 57.1636 135.846 57.5229 136.18 57.7886C136.513 58.049 136.938 58.1792 137.453 58.1792C137.865 58.1792 138.208 58.1037 138.484 57.9526C138.76 57.7964 138.898 57.5516 138.898 57.2183C138.898 56.937 138.797 56.7052 138.594 56.5229C138.396 56.3354 138.128 56.2104 137.789 56.1479L136.273 55.8276C135.57 55.6766 135.013 55.4006 134.602 54.9995C134.19 54.5985 133.984 54.0854 133.984 53.4604C133.984 52.924 134.146 52.4526 134.469 52.0464C134.792 51.6401 135.198 51.3407 135.688 51.1479C136.182 50.95 136.708 50.8511 137.266 50.8511C137.672 50.8511 138.065 50.9084 138.445 51.0229C138.826 51.1323 139.174 51.2964 139.492 51.5151C139.81 51.7287 140.068 52.0177 140.266 52.3823C140.469 52.7417 140.578 53.1479 140.594 53.6011H138.719C138.688 53.2417 138.536 52.9474 138.266 52.7183C137.995 52.4891 137.643 52.3745 137.211 52.3745C136.831 52.3745 136.513 52.4578 136.258 52.6245C136.008 52.7912 135.883 53.0177 135.883 53.3042C135.883 53.7313 136.253 54.0334 136.992 54.2104L138.43 54.5151C139.206 54.6714 139.794 54.9735 140.195 55.4214C140.596 55.8693 140.797 56.411 140.797 57.0464C140.797 57.5099 140.693 57.9188 140.484 58.2729C140.281 58.6271 140.008 58.9058 139.664 59.1089C139.326 59.3068 138.961 59.4552 138.57 59.5542C138.18 59.6532 137.776 59.7026 137.359 59.7026ZM154.812 58.5308C154.026 59.312 152.958 59.7026 151.609 59.7026C150.26 59.7026 149.193 59.312 148.406 58.5308C147.62 57.7443 147.227 56.7052 147.227 55.4136V47.937H149.141V55.3354C149.141 56.0854 149.357 56.7026 149.789 57.187C150.221 57.6662 150.828 57.9058 151.609 57.9058C152.385 57.9058 152.987 57.6662 153.414 57.187C153.841 56.7026 154.055 56.0854 154.055 55.3354V47.937H155.992V55.4136C155.992 56.7052 155.599 57.7443 154.812 58.5308ZM158.312 59.4604V51.0933H160.156V52.1323C160.385 51.7834 160.727 51.4839 161.18 51.2339C161.633 50.9787 162.161 50.8511 162.766 50.8511C163.724 50.8511 164.471 51.1427 165.008 51.7261C165.549 52.3094 165.82 53.0594 165.82 53.9761V59.4604H163.914V54.3589C163.914 53.8381 163.763 53.4084 163.461 53.0698C163.159 52.7313 162.745 52.562 162.219 52.562C161.667 52.562 161.195 52.7573 160.805 53.1479C160.414 53.5334 160.219 54.0203 160.219 54.6089V59.4604H158.312ZM171.422 59.6167C169.469 59.6167 168.492 58.6323 168.492 56.6636V52.6792H166.891V51.0933H168.492V49.2495L170.398 48.2886V51.0933H172.445V52.6792H170.398V56.6089C170.398 57.5047 170.857 57.9526 171.773 57.9526C172.044 57.9526 172.341 57.9214 172.664 57.8589V59.4604C172.284 59.5646 171.87 59.6167 171.422 59.6167ZM177.828 59.7026C177.25 59.7026 176.706 59.6011 176.195 59.3979C175.69 59.1896 175.25 58.8979 174.875 58.5229C174.5 58.1479 174.203 57.6818 173.984 57.1245C173.771 56.562 173.664 55.9422 173.664 55.2651C173.664 54.5933 173.776 53.9787 174 53.4214C174.224 52.8589 174.526 52.3927 174.906 52.0229C175.286 51.6532 175.727 51.3667 176.227 51.1636C176.732 50.9552 177.266 50.8511 177.828 50.8511C179.109 50.8511 180.122 51.3094 180.867 52.2261C181.612 53.1427 181.898 54.3172 181.727 55.7495H175.508C175.581 56.5151 175.828 57.0959 176.25 57.4917C176.672 57.8875 177.198 58.0854 177.828 58.0854C178.307 58.0854 178.719 57.9787 179.062 57.7651C179.406 57.5464 179.638 57.2417 179.758 56.8511H181.695C181.508 57.7417 181.065 58.4396 180.367 58.9448C179.674 59.45 178.828 59.7026 177.828 59.7026ZM175.57 54.3901H179.797C179.766 53.7808 179.568 53.3094 179.203 52.9761C178.844 52.6375 178.38 52.4683 177.812 52.4683C177.266 52.4683 176.789 52.6323 176.383 52.9604C175.982 53.2834 175.711 53.7599 175.57 54.3901ZM183.562 59.4604V51.0933H185.391V52.5776C185.568 52.1089 185.862 51.7313 186.273 51.4448C186.69 51.1584 187.154 51.0151 187.664 51.0151C187.961 51.0151 188.268 51.0516 188.586 51.1245V53.0151C188.232 52.9578 187.94 52.9292 187.711 52.9292C187.039 52.9292 186.495 53.1532 186.078 53.6011C185.661 54.0438 185.453 54.7157 185.453 55.6167V59.4604H183.562ZM190.125 59.4604V51.0933H191.969V52.1323C192.198 51.7834 192.539 51.4839 192.992 51.2339C193.445 50.9787 193.974 50.8511 194.578 50.8511C195.536 50.8511 196.284 51.1427 196.82 51.7261C197.362 52.3094 197.633 53.0594 197.633 53.9761V59.4604H195.727V54.3589C195.727 53.8381 195.576 53.4084 195.273 53.0698C194.971 52.7313 194.557 52.562 194.031 52.562C193.479 52.562 193.008 52.7573 192.617 53.1479C192.227 53.5334 192.031 54.0203 192.031 54.6089V59.4604H190.125ZM203.578 59.7026C203 59.7026 202.456 59.6011 201.945 59.3979C201.44 59.1896 201 58.8979 200.625 58.5229C200.25 58.1479 199.953 57.6818 199.734 57.1245C199.521 56.562 199.414 55.9422 199.414 55.2651C199.414 54.5933 199.526 53.9787 199.75 53.4214C199.974 52.8589 200.276 52.3927 200.656 52.0229C201.036 51.6532 201.477 51.3667 201.977 51.1636C202.482 50.9552 203.016 50.8511 203.578 50.8511C204.859 50.8511 205.872 51.3094 206.617 52.2261C207.362 53.1427 207.648 54.3172 207.477 55.7495H201.258C201.331 56.5151 201.578 57.0959 202 57.4917C202.422 57.8875 202.948 58.0854 203.578 58.0854C204.057 58.0854 204.469 57.9787 204.812 57.7651C205.156 57.5464 205.388 57.2417 205.508 56.8511H207.445C207.258 57.7417 206.815 58.4396 206.117 58.9448C205.424 59.45 204.578 59.7026 203.578 59.7026ZM201.32 54.3901H205.547C205.516 53.7808 205.318 53.3094 204.953 52.9761C204.594 52.6375 204.13 52.4683 203.562 52.4683C203.016 52.4683 202.539 52.6323 202.133 52.9604C201.732 53.2834 201.461 53.7599 201.32 54.3901ZM209.344 59.4604V47.5386H211.25V52.0386C211.495 51.7052 211.836 51.424 212.273 51.1948C212.711 50.9657 213.219 50.8511 213.797 50.8511C214.755 50.8511 215.503 51.1427 216.039 51.7261C216.581 52.3094 216.852 53.0594 216.852 53.9761V59.4604H214.945V54.3589C214.945 53.8381 214.794 53.4084 214.492 53.0698C214.19 52.7313 213.776 52.562 213.25 52.562C212.698 52.562 212.227 52.7573 211.836 53.1479C211.445 53.5334 211.25 54.0203 211.25 54.6089V59.4604H209.344ZM219.062 59.4604V51.0933H220.906V52.1323C221.115 51.7834 221.422 51.4839 221.828 51.2339C222.24 50.9787 222.732 50.8511 223.305 50.8511C223.846 50.8511 224.323 50.9735 224.734 51.2183C225.146 51.4578 225.464 51.7938 225.688 52.2261C225.927 51.8563 226.286 51.536 226.766 51.2651C227.25 50.9891 227.781 50.8511 228.359 50.8511C229.255 50.8511 229.956 51.1427 230.461 51.7261C230.971 52.3042 231.227 53.0542 231.227 53.9761V59.4604H229.32V54.2729C229.32 53.7521 229.19 53.3381 228.93 53.0308C228.669 52.7183 228.31 52.562 227.852 52.562C227.352 52.562 226.932 52.7391 226.594 53.0933C226.255 53.4474 226.086 53.9214 226.086 54.5151V59.4604H224.188V54.2729C224.188 53.7573 224.057 53.3433 223.797 53.0308C223.542 52.7183 223.185 52.562 222.727 52.562C222.221 52.562 221.802 52.7391 221.469 53.0933C221.135 53.4474 220.969 53.9214 220.969 54.5151V59.4604H219.062ZM237.172 59.7026C236.594 59.7026 236.049 59.6011 235.539 59.3979C235.034 59.1896 234.594 58.8979 234.219 58.5229C233.844 58.1479 233.547 57.6818 233.328 57.1245C233.115 56.562 233.008 55.9422 233.008 55.2651C233.008 54.5933 233.12 53.9787 233.344 53.4214C233.568 52.8589 233.87 52.3927 234.25 52.0229C234.63 51.6532 235.07 51.3667 235.57 51.1636C236.076 50.9552 236.609 50.8511 237.172 50.8511C238.453 50.8511 239.466 51.3094 240.211 52.2261C240.956 53.1427 241.242 54.3172 241.07 55.7495H234.852C234.924 56.5151 235.172 57.0959 235.594 57.4917C236.016 57.8875 236.542 58.0854 237.172 58.0854C237.651 58.0854 238.062 57.9787 238.406 57.7651C238.75 57.5464 238.982 57.2417 239.102 56.8511H241.039C240.852 57.7417 240.409 58.4396 239.711 58.9448C239.018 59.45 238.172 59.7026 237.172 59.7026ZM234.914 54.3901H239.141C239.109 53.7808 238.911 53.3094 238.547 52.9761C238.188 52.6375 237.724 52.4683 237.156 52.4683C236.609 52.4683 236.133 52.6323 235.727 52.9604C235.326 53.2834 235.055 53.7599 234.914 54.3901ZM242.906 59.4604V51.0933H244.75V52.1323C244.979 51.7834 245.32 51.4839 245.773 51.2339C246.227 50.9787 246.755 50.8511 247.359 50.8511C248.318 50.8511 249.065 51.1427 249.602 51.7261C250.143 52.3094 250.414 53.0594 250.414 53.9761V59.4604H248.508V54.3589C248.508 53.8381 248.357 53.4084 248.055 53.0698C247.753 52.7313 247.339 52.562 246.812 52.562C246.26 52.562 245.789 52.7573 245.398 53.1479C245.008 53.5334 244.812 54.0203 244.812 54.6089V59.4604H242.906ZM255.781 59.7026C255.422 59.7026 255.076 59.6662 254.742 59.5933C254.414 59.5256 254.096 59.4136 253.789 59.2573C253.487 59.1011 253.221 58.9084 252.992 58.6792C252.768 58.45 252.583 58.1688 252.438 57.8354C252.292 57.4969 252.211 57.1219 252.195 56.7104H254.07C254.091 57.1636 254.268 57.5229 254.602 57.7886C254.935 58.049 255.359 58.1792 255.875 58.1792C256.286 58.1792 256.63 58.1037 256.906 57.9526C257.182 57.7964 257.32 57.5516 257.32 57.2183C257.32 56.937 257.219 56.7052 257.016 56.5229C256.818 56.3354 256.549 56.2104 256.211 56.1479L254.695 55.8276C253.992 55.6766 253.435 55.4006 253.023 54.9995C252.612 54.5985 252.406 54.0854 252.406 53.4604C252.406 52.924 252.568 52.4526 252.891 52.0464C253.214 51.6401 253.62 51.3407 254.109 51.1479C254.604 50.95 255.13 50.8511 255.688 50.8511C256.094 50.8511 256.487 50.9084 256.867 51.0229C257.247 51.1323 257.596 51.2964 257.914 51.5151C258.232 51.7287 258.49 52.0177 258.688 52.3823C258.891 52.7417 259 53.1479 259.016 53.6011H257.141C257.109 53.2417 256.958 52.9474 256.688 52.7183C256.417 52.4891 256.065 52.3745 255.633 52.3745C255.253 52.3745 254.935 52.4578 254.68 52.6245C254.43 52.7912 254.305 53.0177 254.305 53.3042C254.305 53.7313 254.674 54.0334 255.414 54.2104L256.852 54.5151C257.628 54.6714 258.216 54.9735 258.617 55.4214C259.018 55.8693 259.219 56.411 259.219 57.0464C259.219 57.5099 259.115 57.9188 258.906 58.2729C258.703 58.6271 258.43 58.9058 258.086 59.1089C257.747 59.3068 257.383 59.4552 256.992 59.5542C256.602 59.6532 256.198 59.7026 255.781 59.7026Z" fill="#4D5761"/>
<rect x="64.5" y="68.9604" width="477" height="51" rx="7.5" fill="white"/>
<rect x="64.5" y="68.9604" width="477" height="51" rx="7.5" stroke="#E2E4E9"/>
<path d="M81.4844 101.46V89.937H82.8516L89.6641 99.4917V89.937H90.9297V101.46H89.5703L82.75 91.9214V101.46H81.4844ZM95.8103 101.703C95.0863 101.703 94.4743 101.497 93.9743 101.085C93.4743 100.674 93.2243 100.091 93.2243 99.3354C93.2243 98.8771 93.3181 98.4657 93.5056 98.1011C93.6983 97.7365 93.9639 97.437 94.3024 97.2026C94.641 96.9631 95.0186 96.7703 95.4353 96.6245C95.8519 96.4787 96.3129 96.3745 96.8181 96.312L98.5524 96.0854V95.8901C98.5524 95.2495 98.3649 94.7834 97.9899 94.4917C97.6201 94.2 97.1618 94.0542 96.6149 94.0542C96.0472 94.0542 95.5707 94.2026 95.1853 94.4995C94.7998 94.7964 94.5837 95.187 94.5368 95.6714H93.3337C93.3858 94.8381 93.7217 94.1792 94.3415 93.6948C94.9613 93.2104 95.7295 92.9683 96.6462 92.9683C96.9639 92.9683 97.2686 93.0021 97.5603 93.0698C97.8519 93.1323 98.1332 93.2391 98.404 93.3901C98.6748 93.536 98.9092 93.7209 99.1071 93.9448C99.305 94.1636 99.4639 94.4422 99.5837 94.7808C99.7035 95.1141 99.7634 95.4891 99.7634 95.9058V98.9995C99.7634 99.0464 99.779 99.8667 99.8103 101.46H98.6149V99.9761C98.3233 100.518 97.9379 100.942 97.4587 101.25C96.9847 101.552 96.4353 101.703 95.8103 101.703ZM94.4353 99.2495C94.4353 99.661 94.5759 99.9917 94.8571 100.242C95.1436 100.486 95.5108 100.609 95.9587 100.609C96.6774 100.609 97.2894 100.338 97.7946 99.7964C98.2998 99.2495 98.5524 98.4969 98.5524 97.5386V97.0933L96.8337 97.3354C96.042 97.45 95.4431 97.6714 95.0368 97.9995C94.6358 98.3224 94.4353 98.7391 94.4353 99.2495ZM102.355 101.46V93.2026H103.558V94.3589C103.772 93.9839 104.092 93.6584 104.519 93.3823C104.951 93.1063 105.456 92.9683 106.035 92.9683C106.634 92.9683 107.141 93.1037 107.558 93.3745C107.975 93.6453 108.282 94.0203 108.48 94.4995C108.699 94.0985 109.055 93.7443 109.55 93.437C110.045 93.1245 110.602 92.9683 111.222 92.9683C112.087 92.9683 112.761 93.2521 113.246 93.8198C113.73 94.3875 113.972 95.1167 113.972 96.0073V101.46H112.722V96.2261C112.722 95.5907 112.566 95.0828 112.253 94.7026C111.946 94.3224 111.516 94.1323 110.964 94.1323C110.36 94.1323 109.844 94.3511 109.417 94.7886C108.996 95.2261 108.785 95.7912 108.785 96.4839V101.46H107.542V96.2261C107.542 95.5959 107.386 95.0907 107.074 94.7104C106.761 94.325 106.329 94.1323 105.777 94.1323C105.167 94.1323 104.652 94.3537 104.23 94.7964C103.813 95.2339 103.605 95.7964 103.605 96.4839V101.46H102.355ZM120.048 101.703C118.913 101.703 117.965 101.304 117.204 100.507C116.444 99.7104 116.064 98.6532 116.064 97.3354C116.064 96.6792 116.17 96.075 116.384 95.5229C116.597 94.9709 116.884 94.5099 117.243 94.1401C117.608 93.7703 118.032 93.4839 118.517 93.2808C119.006 93.0724 119.522 92.9683 120.064 92.9683C120.86 92.9683 121.558 93.1714 122.157 93.5776C122.761 93.9787 123.204 94.5334 123.485 95.2417C123.767 95.9448 123.858 96.7261 123.759 97.5854H117.259C117.306 98.5438 117.59 99.2782 118.11 99.7886C118.631 100.294 119.272 100.546 120.032 100.546C120.631 100.546 121.144 100.411 121.571 100.14C122.004 99.8693 122.29 99.4839 122.431 98.9839H123.673C123.491 99.8224 123.064 100.486 122.392 100.976C121.725 101.46 120.944 101.703 120.048 101.703ZM117.321 96.562H122.509C122.488 95.7808 122.246 95.1766 121.782 94.7495C121.319 94.3172 120.741 94.1011 120.048 94.1011C119.36 94.1011 118.764 94.3146 118.259 94.7417C117.759 95.1636 117.446 95.7703 117.321 96.562ZM133.551 101.703C132.484 101.703 131.598 101.312 130.895 100.531C130.192 99.7495 129.84 98.6844 129.84 97.3354C129.84 95.9865 130.192 94.9214 130.895 94.1401C131.598 93.3589 132.484 92.9683 133.551 92.9683C134.181 92.9683 134.726 93.1115 135.184 93.3979C135.648 93.6844 136.01 94.0516 136.27 94.4995V89.5386H137.52V101.46H136.301V100.101C136.041 100.565 135.679 100.947 135.215 101.25C134.757 101.552 134.202 101.703 133.551 101.703ZM131.809 94.9995C131.325 95.5568 131.083 96.3354 131.083 97.3354C131.083 98.3354 131.325 99.1141 131.809 99.6714C132.299 100.223 132.921 100.5 133.676 100.5C134.426 100.5 135.046 100.218 135.536 99.6558C136.025 99.0933 136.27 98.3198 136.27 97.3354C136.27 96.3407 136.028 95.5646 135.543 95.0073C135.059 94.4448 134.437 94.1636 133.676 94.1636C132.921 94.1636 132.299 94.4422 131.809 94.9995ZM143.635 101.703C142.5 101.703 141.552 101.304 140.791 100.507C140.031 99.7104 139.651 98.6532 139.651 97.3354C139.651 96.6792 139.757 96.075 139.971 95.5229C140.184 94.9709 140.471 94.5099 140.83 94.1401C141.195 93.7703 141.619 93.4839 142.104 93.2808C142.593 93.0724 143.109 92.9683 143.651 92.9683C144.447 92.9683 145.145 93.1714 145.744 93.5776C146.348 93.9787 146.791 94.5334 147.072 95.2417C147.354 95.9448 147.445 96.7261 147.346 97.5854H140.846C140.893 98.5438 141.177 99.2782 141.697 99.7886C142.218 100.294 142.859 100.546 143.619 100.546C144.218 100.546 144.731 100.411 145.158 100.14C145.591 99.8693 145.877 99.4839 146.018 98.9839H147.26C147.078 99.8224 146.651 100.486 145.979 100.976C145.312 101.46 144.531 101.703 143.635 101.703ZM140.908 96.562H146.096C146.075 95.7808 145.833 95.1766 145.369 94.7495C144.906 94.3172 144.328 94.1011 143.635 94.1011C142.947 94.1011 142.351 94.3146 141.846 94.7417C141.346 95.1636 141.033 95.7703 140.908 96.562ZM152.445 101.703C151.497 101.703 150.708 101.45 150.078 100.945C149.448 100.434 149.107 99.7313 149.055 98.8354H150.281C150.338 99.3875 150.562 99.8224 150.953 100.14C151.349 100.453 151.867 100.609 152.508 100.609C152.742 100.609 152.961 100.591 153.164 100.554C153.367 100.513 153.562 100.447 153.75 100.359C153.943 100.265 154.094 100.132 154.203 99.9604C154.312 99.7834 154.367 99.575 154.367 99.3354C154.367 98.9657 154.239 98.6636 153.984 98.4292C153.734 98.1948 153.396 98.0308 152.969 97.937L151.516 97.6167C150.838 97.4657 150.307 97.2078 149.922 96.8433C149.536 96.4735 149.344 95.9917 149.344 95.3979C149.344 94.6688 149.643 94.0828 150.242 93.6401C150.841 93.1922 151.549 92.9683 152.367 92.9683C152.893 92.9683 153.383 93.0698 153.836 93.2729C154.289 93.4709 154.664 93.7756 154.961 94.187C155.263 94.5933 155.427 95.0698 155.453 95.6167H154.234C154.198 95.1532 154 94.7756 153.641 94.4839C153.281 94.187 152.844 94.0386 152.328 94.0386C151.849 94.0386 151.437 94.1558 151.094 94.3901C150.755 94.6245 150.586 94.9344 150.586 95.3198C150.586 95.9032 151.023 96.2912 151.898 96.4839L153.359 96.8042C154.052 96.9604 154.601 97.2495 155.008 97.6714C155.419 98.0881 155.625 98.6089 155.625 99.2339C155.625 99.5828 155.56 99.9006 155.43 100.187C155.299 100.468 155.127 100.703 154.914 100.89C154.706 101.072 154.461 101.226 154.18 101.351C153.904 101.476 153.62 101.565 153.328 101.617C153.042 101.674 152.747 101.703 152.445 101.703ZM166.409 101.703C165.748 101.703 165.152 101.596 164.62 101.382C164.094 101.164 163.659 100.864 163.316 100.484C162.977 100.104 162.717 99.6584 162.534 99.1479C162.352 98.6375 162.261 98.0854 162.261 97.4917V89.937H163.527V97.4604C163.527 98.3563 163.779 99.0907 164.284 99.6636C164.79 100.231 165.498 100.515 166.409 100.515C167.326 100.515 168.037 100.231 168.542 99.6636C169.053 99.0907 169.308 98.3563 169.308 97.4604V89.937H170.566V97.4917C170.566 98.7209 170.201 99.7313 169.472 100.523C168.743 101.309 167.722 101.703 166.409 101.703ZM173.306 101.46V93.2026H174.509V94.3433C174.748 93.9735 175.105 93.6532 175.579 93.3823C176.058 93.1063 176.603 92.9683 177.212 92.9683C178.175 92.9683 178.918 93.2521 179.438 93.8198C179.959 94.3875 180.22 95.1167 180.22 96.0073V101.46H178.97V96.2261C178.97 95.6011 178.793 95.0959 178.438 94.7104C178.084 94.325 177.595 94.1323 176.97 94.1323C176.308 94.1323 175.741 94.3615 175.267 94.8198C174.793 95.2782 174.556 95.8485 174.556 96.5308V101.46H173.306ZM185.632 101.617C185.288 101.617 184.97 101.572 184.678 101.484C184.387 101.395 184.118 101.257 183.874 101.07C183.634 100.877 183.444 100.611 183.303 100.273C183.168 99.9292 183.1 99.5256 183.1 99.062V94.3276H181.499V93.2026H183.1V91.0464L184.35 90.4058V93.2026H186.491V94.3276H184.35V99.0151C184.35 99.5151 184.478 99.8823 184.733 100.117C184.988 100.351 185.335 100.468 185.772 100.468C186.163 100.468 186.493 100.427 186.764 100.343V101.46C186.447 101.565 186.069 101.617 185.632 101.617ZM191.871 101.703C190.736 101.703 189.788 101.304 189.028 100.507C188.267 99.7104 187.887 98.6532 187.887 97.3354C187.887 96.6792 187.994 96.075 188.207 95.5229C188.421 94.9709 188.707 94.5099 189.067 94.1401C189.431 93.7703 189.856 93.4839 190.34 93.2808C190.83 93.0724 191.345 92.9683 191.887 92.9683C192.684 92.9683 193.382 93.1714 193.981 93.5776C194.585 93.9787 195.028 94.5334 195.309 95.2417C195.59 95.9448 195.681 96.7261 195.582 97.5854H189.082C189.129 98.5438 189.413 99.2782 189.934 99.7886C190.455 100.294 191.095 100.546 191.856 100.546C192.455 100.546 192.968 100.411 193.395 100.14C193.827 99.8693 194.114 99.4839 194.254 98.9839H195.496C195.314 99.8224 194.887 100.486 194.215 100.976C193.549 101.46 192.767 101.703 191.871 101.703ZM189.145 96.562H194.332C194.312 95.7808 194.069 95.1766 193.606 94.7495C193.142 94.3172 192.564 94.1011 191.871 94.1011C191.184 94.1011 190.588 94.3146 190.082 94.7417C189.582 95.1636 189.27 95.7703 189.145 96.562ZM197.752 101.46V93.2026H198.955V94.6479C199.127 94.2104 199.424 93.8485 199.846 93.562C200.268 93.2703 200.739 93.1245 201.26 93.1245C201.604 93.1245 201.916 93.161 202.197 93.2339V94.4839C201.874 94.4318 201.572 94.4058 201.291 94.4058C200.609 94.4058 200.054 94.6688 199.627 95.1948C199.2 95.7209 198.986 96.4552 198.986 97.3979V101.46H197.752ZM204.093 101.46V93.2026H205.297V94.3433C205.536 93.9735 205.893 93.6532 206.367 93.3823C206.846 93.1063 207.39 92.9683 208 92.9683C208.963 92.9683 209.705 93.2521 210.226 93.8198C210.747 94.3875 211.008 95.1167 211.008 96.0073V101.46H209.758V96.2261C209.758 95.6011 209.58 95.0959 209.226 94.7104C208.872 94.325 208.383 94.1323 207.758 94.1323C207.096 94.1323 206.528 94.3615 206.054 94.8198C205.58 95.2782 205.343 95.8485 205.343 96.5308V101.46H204.093ZM217.068 101.703C215.932 101.703 214.984 101.304 214.224 100.507C213.464 99.7104 213.083 98.6532 213.083 97.3354C213.083 96.6792 213.19 96.075 213.404 95.5229C213.617 94.9709 213.904 94.5099 214.263 94.1401C214.628 93.7703 215.052 93.4839 215.537 93.2808C216.026 93.0724 216.542 92.9683 217.083 92.9683C217.88 92.9683 218.578 93.1714 219.177 93.5776C219.781 93.9787 220.224 94.5334 220.505 95.2417C220.787 95.9448 220.878 96.7261 220.779 97.5854H214.279C214.326 98.5438 214.609 99.2782 215.13 99.7886C215.651 100.294 216.292 100.546 217.052 100.546C217.651 100.546 218.164 100.411 218.591 100.14C219.024 99.8693 219.31 99.4839 219.451 98.9839H220.693C220.511 99.8224 220.083 100.486 219.412 100.976C218.745 101.46 217.964 101.703 217.068 101.703ZM214.341 96.562H219.529C219.508 95.7808 219.266 95.1766 218.802 94.7495C218.339 94.3172 217.761 94.1011 217.068 94.1011C216.38 94.1011 215.784 94.3146 215.279 94.7417C214.779 95.1636 214.466 95.7703 214.341 96.562ZM222.933 101.46V89.5386H224.183V94.2573C224.428 93.9032 224.782 93.6011 225.245 93.3511C225.714 93.0959 226.245 92.9683 226.839 92.9683C227.803 92.9683 228.545 93.2521 229.066 93.8198C229.586 94.3875 229.847 95.1167 229.847 96.0073V101.46H228.597V96.2261C228.597 95.6011 228.42 95.0959 228.066 94.7104C227.711 94.325 227.222 94.1323 226.597 94.1323C225.935 94.1323 225.368 94.3615 224.894 94.8198C224.42 95.2782 224.183 95.8485 224.183 96.5308V101.46H222.933ZM232.415 101.46V93.2026H233.618V94.3589C233.832 93.9839 234.152 93.6584 234.579 93.3823C235.011 93.1063 235.516 92.9683 236.095 92.9683C236.694 92.9683 237.201 93.1037 237.618 93.3745C238.035 93.6453 238.342 94.0203 238.54 94.4995C238.759 94.0985 239.115 93.7443 239.61 93.437C240.105 93.1245 240.662 92.9683 241.282 92.9683C242.147 92.9683 242.821 93.2521 243.305 93.8198C243.79 94.3875 244.032 95.1167 244.032 96.0073V101.46H242.782V96.2261C242.782 95.5907 242.626 95.0828 242.313 94.7026C242.006 94.3224 241.576 94.1323 241.024 94.1323C240.42 94.1323 239.904 94.3511 239.477 94.7886C239.055 95.2261 238.845 95.7912 238.845 96.4839V101.46H237.602V96.2261C237.602 95.5959 237.446 95.0907 237.134 94.7104C236.821 94.325 236.389 94.1323 235.837 94.1323C235.227 94.1323 234.712 94.3537 234.29 94.7964C233.873 95.2339 233.665 95.7964 233.665 96.4839V101.46H232.415ZM250.108 101.703C248.973 101.703 248.025 101.304 247.264 100.507C246.504 99.7104 246.124 98.6532 246.124 97.3354C246.124 96.6792 246.23 96.075 246.444 95.5229C246.657 94.9709 246.944 94.5099 247.303 94.1401C247.668 93.7703 248.092 93.4839 248.577 93.2808C249.066 93.0724 249.582 92.9683 250.124 92.9683C250.92 92.9683 251.618 93.1714 252.217 93.5776C252.821 93.9787 253.264 94.5334 253.545 95.2417C253.827 95.9448 253.918 96.7261 253.819 97.5854H247.319C247.366 98.5438 247.65 99.2782 248.17 99.7886C248.691 100.294 249.332 100.546 250.092 100.546C250.691 100.546 251.204 100.411 251.631 100.14C252.064 99.8693 252.35 99.4839 252.491 98.9839H253.733C253.551 99.8224 253.124 100.486 252.452 100.976C251.785 101.46 251.004 101.703 250.108 101.703ZM247.381 96.562H252.569C252.548 95.7808 252.306 95.1766 251.842 94.7495C251.379 94.3172 250.801 94.1011 250.108 94.1011C249.42 94.1011 248.824 94.3146 248.319 94.7417C247.819 95.1636 247.506 95.7703 247.381 96.562ZM255.988 101.46V93.2026H257.192V94.3433C257.431 93.9735 257.788 93.6532 258.262 93.3823C258.741 93.1063 259.285 92.9683 259.895 92.9683C260.858 92.9683 261.6 93.2521 262.121 93.8198C262.642 94.3875 262.903 95.1167 262.903 96.0073V101.46H261.653V96.2261C261.653 95.6011 261.475 95.0959 261.121 94.7104C260.767 94.325 260.278 94.1323 259.653 94.1323C258.991 94.1323 258.423 94.3615 257.949 94.8198C257.475 95.2782 257.238 95.8485 257.238 96.5308V101.46H255.988ZM268.4 101.703C267.452 101.703 266.663 101.45 266.033 100.945C265.403 100.434 265.062 99.7313 265.01 98.8354H266.236C266.294 99.3875 266.518 99.8224 266.908 100.14C267.304 100.453 267.822 100.609 268.463 100.609C268.697 100.609 268.916 100.591 269.119 100.554C269.322 100.513 269.518 100.447 269.705 100.359C269.898 100.265 270.049 100.132 270.158 99.9604C270.268 99.7834 270.322 99.575 270.322 99.3354C270.322 98.9657 270.195 98.6636 269.939 98.4292C269.689 98.1948 269.351 98.0308 268.924 97.937L267.471 97.6167C266.794 97.4657 266.262 97.2078 265.877 96.8433C265.491 96.4735 265.299 95.9917 265.299 95.3979C265.299 94.6688 265.598 94.0828 266.197 93.6401C266.796 93.1922 267.504 92.9683 268.322 92.9683C268.848 92.9683 269.338 93.0698 269.791 93.2729C270.244 93.4709 270.619 93.7756 270.916 94.187C271.218 94.5933 271.382 95.0698 271.408 95.6167H270.189C270.153 95.1532 269.955 94.7756 269.596 94.4839C269.236 94.187 268.799 94.0386 268.283 94.0386C267.804 94.0386 267.393 94.1558 267.049 94.3901C266.71 94.6245 266.541 94.9344 266.541 95.3198C266.541 95.9032 266.978 96.2912 267.853 96.4839L269.314 96.8042C270.007 96.9604 270.557 97.2495 270.963 97.6714C271.374 98.0881 271.58 98.6089 271.58 99.2339C271.58 99.5828 271.515 99.9006 271.385 100.187C271.254 100.468 271.083 100.703 270.869 100.89C270.661 101.072 270.416 101.226 270.135 101.351C269.859 101.476 269.575 101.565 269.283 101.617C268.997 101.674 268.702 101.703 268.4 101.703Z" fill="#4D5761"/>
<path d="M65.6797 155.46V143.937H73.0859V145.734H67.5938V148.71H72.0938V150.484H67.5938V153.671H73.0859V155.46H65.6797ZM73.7266 150.835V149.218H79.4219V150.835H73.7266ZM81.5391 155.46V143.937H83.9688L87.7266 152.804L91.4922 143.937H93.9219V155.46H92.1094V147.015L88.5156 155.46H86.9453L83.3438 147.015V155.46H81.5391ZM98.5078 155.703C97.7422 155.703 97.1042 155.484 96.5938 155.046C96.0885 154.609 95.8359 154 95.8359 153.218C95.8359 152.739 95.9375 152.315 96.1406 151.945C96.3438 151.57 96.6276 151.265 96.9922 151.031C97.3568 150.791 97.7578 150.601 98.1953 150.46C98.6328 150.315 99.1172 150.21 99.6484 150.148L101.055 149.992V149.828C101.055 149.348 100.901 148.989 100.594 148.75C100.286 148.51 99.9062 148.39 99.4531 148.39C98.9896 148.39 98.6042 148.51 98.2969 148.75C97.9948 148.989 97.8203 149.312 97.7734 149.718H95.9453C96.013 148.807 96.3698 148.101 97.0156 147.601C97.6615 147.101 98.4896 146.851 99.5 146.851C99.8438 146.851 100.169 146.882 100.477 146.945C100.789 147.007 101.094 147.114 101.391 147.265C101.688 147.416 101.943 147.609 102.156 147.843C102.375 148.072 102.549 148.372 102.68 148.742C102.81 149.106 102.875 149.523 102.875 149.992V153.015C102.875 153.708 102.914 154.523 102.992 155.46H101.148V154.164C100.523 155.19 99.6432 155.703 98.5078 155.703ZM97.6953 153.062C97.6953 153.385 97.8073 153.651 98.0312 153.859C98.2552 154.062 98.5469 154.164 98.9062 154.164C99.4896 154.164 99.9922 153.94 100.414 153.492C100.841 153.039 101.055 152.437 101.055 151.687V151.304L99.5469 151.539C98.9323 151.627 98.4688 151.804 98.1562 152.07C97.849 152.33 97.6953 152.661 97.6953 153.062ZM105.078 155.46V147.093H106.984V155.46H105.078ZM105.172 145.703C104.943 145.463 104.828 145.179 104.828 144.851C104.828 144.523 104.943 144.242 105.172 144.007C105.406 143.773 105.69 143.656 106.023 143.656C106.357 143.656 106.643 143.773 106.883 144.007C107.122 144.242 107.242 144.523 107.242 144.851C107.242 145.179 107.122 145.463 106.883 145.703C106.643 145.937 106.357 146.054 106.023 146.054C105.69 146.054 105.406 145.937 105.172 145.703ZM109.188 155.46V143.539H111.094V155.46H109.188ZM117.078 155.46L121.766 143.937H123.828L128.469 155.46H126.359L125.32 152.789H120.25L119.195 155.46H117.078ZM120.906 151.093H124.664L122.789 146.273L120.906 151.093ZM132.875 155.703C132.375 155.703 131.901 155.604 131.453 155.406C131.005 155.208 130.609 154.927 130.266 154.562C129.922 154.192 129.648 153.723 129.445 153.156C129.247 152.588 129.148 151.958 129.148 151.265C129.148 150.578 129.247 149.953 129.445 149.39C129.648 148.822 129.922 148.356 130.266 147.992C130.609 147.627 131.005 147.346 131.453 147.148C131.901 146.95 132.375 146.851 132.875 146.851C133.443 146.851 133.943 146.963 134.375 147.187C134.812 147.406 135.167 147.705 135.438 148.085V143.539H137.344V155.46H135.5V154.39C135.245 154.786 134.893 155.104 134.445 155.343C133.997 155.583 133.474 155.703 132.875 155.703ZM131.07 151.265C131.07 152.135 131.273 152.804 131.68 153.273C132.091 153.742 132.612 153.976 133.242 153.976C133.872 153.976 134.396 153.739 134.812 153.265C135.229 152.786 135.438 152.119 135.438 151.265C135.438 150.401 135.229 149.736 134.812 149.273C134.401 148.809 133.878 148.578 133.242 148.578C132.612 148.578 132.091 148.809 131.68 149.273C131.273 149.736 131.07 150.401 131.07 151.265ZM139.547 155.46V147.093H141.375V148.578C141.552 148.109 141.846 147.731 142.258 147.445C142.674 147.158 143.138 147.015 143.648 147.015C143.945 147.015 144.253 147.052 144.57 147.125V149.015C144.216 148.958 143.924 148.929 143.695 148.929C143.023 148.929 142.479 149.153 142.062 149.601C141.646 150.044 141.438 150.716 141.438 151.617V155.46H139.547ZM149.812 155.703C149.234 155.703 148.69 155.601 148.18 155.398C147.674 155.19 147.234 154.898 146.859 154.523C146.484 154.148 146.188 153.682 145.969 153.125C145.755 152.562 145.648 151.942 145.648 151.265C145.648 150.593 145.76 149.979 145.984 149.421C146.208 148.859 146.51 148.393 146.891 148.023C147.271 147.653 147.711 147.367 148.211 147.164C148.716 146.955 149.25 146.851 149.812 146.851C151.094 146.851 152.107 147.309 152.852 148.226C153.596 149.143 153.883 150.317 153.711 151.75H147.492C147.565 152.515 147.812 153.096 148.234 153.492C148.656 153.888 149.182 154.085 149.812 154.085C150.292 154.085 150.703 153.979 151.047 153.765C151.391 153.546 151.622 153.242 151.742 152.851H153.68C153.492 153.742 153.049 154.44 152.352 154.945C151.659 155.45 150.812 155.703 149.812 155.703ZM147.555 150.39H151.781C151.75 149.781 151.552 149.309 151.188 148.976C150.828 148.638 150.365 148.468 149.797 148.468C149.25 148.468 148.773 148.632 148.367 148.96C147.966 149.283 147.695 149.76 147.555 150.39ZM158.719 155.703C158.359 155.703 158.013 155.666 157.68 155.593C157.352 155.526 157.034 155.414 156.727 155.257C156.424 155.101 156.159 154.908 155.93 154.679C155.706 154.45 155.521 154.169 155.375 153.835C155.229 153.497 155.148 153.122 155.133 152.71H157.008C157.029 153.164 157.206 153.523 157.539 153.789C157.872 154.049 158.297 154.179 158.812 154.179C159.224 154.179 159.568 154.104 159.844 153.953C160.12 153.796 160.258 153.552 160.258 153.218C160.258 152.937 160.156 152.705 159.953 152.523C159.755 152.335 159.487 152.21 159.148 152.148L157.633 151.828C156.93 151.677 156.372 151.401 155.961 151C155.549 150.598 155.344 150.085 155.344 149.46C155.344 148.924 155.505 148.453 155.828 148.046C156.151 147.64 156.557 147.341 157.047 147.148C157.542 146.95 158.068 146.851 158.625 146.851C159.031 146.851 159.424 146.908 159.805 147.023C160.185 147.132 160.534 147.296 160.852 147.515C161.169 147.729 161.427 148.018 161.625 148.382C161.828 148.742 161.938 149.148 161.953 149.601H160.078C160.047 149.242 159.896 148.947 159.625 148.718C159.354 148.489 159.003 148.375 158.57 148.375C158.19 148.375 157.872 148.458 157.617 148.625C157.367 148.791 157.242 149.018 157.242 149.304C157.242 149.731 157.612 150.033 158.352 150.21L159.789 150.515C160.565 150.671 161.154 150.973 161.555 151.421C161.956 151.869 162.156 152.411 162.156 153.046C162.156 153.51 162.052 153.919 161.844 154.273C161.641 154.627 161.367 154.906 161.023 155.109C160.685 155.307 160.32 155.455 159.93 155.554C159.539 155.653 159.135 155.703 158.719 155.703ZM166.891 155.703C166.531 155.703 166.185 155.666 165.852 155.593C165.523 155.526 165.206 155.414 164.898 155.257C164.596 155.101 164.331 154.908 164.102 154.679C163.878 154.45 163.693 154.169 163.547 153.835C163.401 153.497 163.32 153.122 163.305 152.71H165.18C165.201 153.164 165.378 153.523 165.711 153.789C166.044 154.049 166.469 154.179 166.984 154.179C167.396 154.179 167.74 154.104 168.016 153.953C168.292 153.796 168.43 153.552 168.43 153.218C168.43 152.937 168.328 152.705 168.125 152.523C167.927 152.335 167.659 152.21 167.32 152.148L165.805 151.828C165.102 151.677 164.544 151.401 164.133 151C163.721 150.598 163.516 150.085 163.516 149.46C163.516 148.924 163.677 148.453 164 148.046C164.323 147.64 164.729 147.341 165.219 147.148C165.714 146.95 166.24 146.851 166.797 146.851C167.203 146.851 167.596 146.908 167.977 147.023C168.357 147.132 168.706 147.296 169.023 147.515C169.341 147.729 169.599 148.018 169.797 148.382C170 148.742 170.109 149.148 170.125 149.601H168.25C168.219 149.242 168.068 148.947 167.797 148.718C167.526 148.489 167.174 148.375 166.742 148.375C166.362 148.375 166.044 148.458 165.789 148.625C165.539 148.791 165.414 149.018 165.414 149.304C165.414 149.731 165.784 150.033 166.523 150.21L167.961 150.515C168.737 150.671 169.326 150.973 169.727 151.421C170.128 151.869 170.328 152.411 170.328 153.046C170.328 153.51 170.224 153.919 170.016 154.273C169.812 154.627 169.539 154.906 169.195 155.109C168.857 155.307 168.492 155.455 168.102 155.554C167.711 155.653 167.307 155.703 166.891 155.703ZM175.891 155.703C175.312 155.703 174.768 155.601 174.258 155.398C173.753 155.19 173.312 154.898 172.938 154.523C172.562 154.148 172.266 153.682 172.047 153.125C171.833 152.562 171.727 151.942 171.727 151.265C171.727 150.593 171.839 149.979 172.062 149.421C172.286 148.859 172.589 148.393 172.969 148.023C173.349 147.653 173.789 147.367 174.289 147.164C174.794 146.955 175.328 146.851 175.891 146.851C177.172 146.851 178.185 147.309 178.93 148.226C179.674 149.143 179.961 150.317 179.789 151.75H173.57C173.643 152.515 173.891 153.096 174.312 153.492C174.734 153.888 175.26 154.085 175.891 154.085C176.37 154.085 176.781 153.979 177.125 153.765C177.469 153.546 177.701 153.242 177.82 152.851H179.758C179.57 153.742 179.128 154.44 178.43 154.945C177.737 155.45 176.891 155.703 175.891 155.703ZM173.633 150.39H177.859C177.828 149.781 177.63 149.309 177.266 148.976C176.906 148.638 176.443 148.468 175.875 148.468C175.328 148.468 174.852 148.632 174.445 148.96C174.044 149.283 173.773 149.76 173.633 150.39Z" fill="#4D5761"/>
<rect x="64.5" y="164.96" width="477" height="51" rx="7.5" fill="white"/>
<rect x="64.5" y="164.96" width="477" height="51" rx="7.5" stroke="#E2E4E9"/>
<path d="M81.3438 197.46V189.203H82.5469V190.359C82.7604 189.984 83.0807 189.658 83.5078 189.382C83.9401 189.106 84.4453 188.968 85.0234 188.968C85.6224 188.968 86.1302 189.104 86.5469 189.375C86.9635 189.645 87.2708 190.02 87.4688 190.5C87.6875 190.098 88.0443 189.744 88.5391 189.437C89.0339 189.125 89.5911 188.968 90.2109 188.968C91.0755 188.968 91.75 189.252 92.2344 189.82C92.7188 190.388 92.9609 191.117 92.9609 192.007V197.46H91.7109V192.226C91.7109 191.591 91.5547 191.083 91.2422 190.703C90.9349 190.322 90.5052 190.132 89.9531 190.132C89.349 190.132 88.8333 190.351 88.4062 190.789C87.9844 191.226 87.7734 191.791 87.7734 192.484V197.46H86.5312V192.226C86.5312 191.596 86.375 191.091 86.0625 190.71C85.75 190.325 85.3177 190.132 84.7656 190.132C84.1562 190.132 83.6406 190.354 83.2188 190.796C82.8021 191.234 82.5938 191.796 82.5938 192.484V197.46H81.3438ZM97.5446 197.703C96.8207 197.703 96.2087 197.497 95.7087 197.085C95.2087 196.674 94.9587 196.091 94.9587 195.335C94.9587 194.877 95.0524 194.466 95.2399 194.101C95.4326 193.736 95.6983 193.437 96.0368 193.203C96.3754 192.963 96.753 192.77 97.1696 192.625C97.5863 192.479 98.0472 192.375 98.5524 192.312L100.287 192.085V191.89C100.287 191.25 100.099 190.783 99.7243 190.492C99.3545 190.2 98.8962 190.054 98.3493 190.054C97.7816 190.054 97.305 190.203 96.9196 190.5C96.5342 190.796 96.3181 191.187 96.2712 191.671H95.0681C95.1201 190.838 95.4561 190.179 96.0759 189.695C96.6957 189.21 97.4639 188.968 98.3806 188.968C98.6983 188.968 99.003 189.002 99.2946 189.07C99.5863 189.132 99.8675 189.239 100.138 189.39C100.409 189.536 100.644 189.721 100.842 189.945C101.039 190.164 101.198 190.442 101.318 190.781C101.438 191.114 101.498 191.489 101.498 191.906V195C101.498 195.046 101.513 195.867 101.545 197.46H100.349V195.976C100.058 196.518 99.6722 196.942 99.1931 197.25C98.7191 197.552 98.1696 197.703 97.5446 197.703ZM96.1696 195.25C96.1696 195.661 96.3103 195.992 96.5915 196.242C96.878 196.486 97.2451 196.609 97.6931 196.609C98.4118 196.609 99.0238 196.338 99.529 195.796C100.034 195.25 100.287 194.497 100.287 193.539V193.093L98.5681 193.335C97.7764 193.45 97.1774 193.671 96.7712 194C96.3701 194.322 96.1696 194.739 96.1696 195.25ZM104.089 197.46V189.203H105.339V197.46H104.089ZM103.816 186.726C103.816 186.481 103.904 186.27 104.081 186.093C104.259 185.916 104.469 185.828 104.714 185.828C104.954 185.828 105.16 185.916 105.331 186.093C105.509 186.27 105.597 186.481 105.597 186.726C105.597 186.966 105.509 187.171 105.331 187.343C105.16 187.515 104.954 187.601 104.714 187.601C104.469 187.601 104.259 187.515 104.081 187.343C103.904 187.171 103.816 186.966 103.816 186.726ZM107.915 197.46V185.539H109.165V197.46H107.915ZM117.897 198.757C116.694 198.757 115.606 198.497 114.632 197.976C113.658 197.455 112.889 196.716 112.327 195.757C111.764 194.794 111.483 193.697 111.483 192.468C111.483 191.557 111.645 190.705 111.968 189.914C112.296 189.117 112.736 188.442 113.288 187.89C113.845 187.333 114.504 186.895 115.264 186.578C116.025 186.26 116.83 186.101 117.678 186.101C118.814 186.101 119.85 186.346 120.788 186.835C121.731 187.32 122.478 188.007 123.03 188.898C123.587 189.789 123.866 190.791 123.866 191.906C123.866 193.02 123.6 193.901 123.069 194.546C122.543 195.187 121.902 195.507 121.147 195.507C120.731 195.507 120.361 195.411 120.038 195.218C119.72 195.026 119.499 194.755 119.374 194.406C119.212 194.718 118.962 194.981 118.624 195.195C118.285 195.403 117.884 195.507 117.421 195.507C116.66 195.507 116.027 195.231 115.522 194.679C115.017 194.122 114.764 193.369 114.764 192.421C114.764 191.473 115.017 190.723 115.522 190.171C116.033 189.614 116.665 189.335 117.421 189.335C118.207 189.335 118.814 189.627 119.241 190.21V189.492H120.366V193.46C120.366 193.763 120.447 194.005 120.608 194.187C120.77 194.364 120.981 194.453 121.241 194.453C121.678 194.453 122.035 194.234 122.311 193.796C122.593 193.359 122.733 192.757 122.733 191.992C122.733 191.033 122.507 190.187 122.053 189.453C121.6 188.718 120.994 188.161 120.233 187.781C119.473 187.395 118.621 187.203 117.678 187.203C116.741 187.203 115.889 187.424 115.124 187.867C114.363 188.304 113.759 188.927 113.311 189.734C112.869 190.536 112.647 191.447 112.647 192.468C112.647 194.01 113.139 195.257 114.124 196.21C115.113 197.164 116.387 197.64 117.944 197.64C118.798 197.64 119.53 197.51 120.139 197.25V198.406C119.426 198.64 118.678 198.757 117.897 198.757ZM116.405 190.929C116.098 191.283 115.944 191.781 115.944 192.421C115.944 193.062 116.098 193.562 116.405 193.921C116.712 194.276 117.108 194.453 117.593 194.453C118.067 194.453 118.46 194.273 118.772 193.914C119.085 193.549 119.241 193.052 119.241 192.421C119.241 191.786 119.085 191.289 118.772 190.929C118.46 190.57 118.067 190.39 117.593 190.39C117.108 190.39 116.712 190.57 116.405 190.929ZM126.208 197.46V189.203H127.411V190.359C127.624 189.984 127.944 189.658 128.372 189.382C128.804 189.106 129.309 188.968 129.887 188.968C130.486 188.968 130.994 189.104 131.411 189.375C131.827 189.645 132.135 190.02 132.333 190.5C132.551 190.098 132.908 189.744 133.403 189.437C133.898 189.125 134.455 188.968 135.075 188.968C135.939 188.968 136.614 189.252 137.098 189.82C137.583 190.388 137.825 191.117 137.825 192.007V197.46H136.575V192.226C136.575 191.591 136.418 191.083 136.106 190.703C135.799 190.322 135.369 190.132 134.817 190.132C134.213 190.132 133.697 190.351 133.27 190.789C132.848 191.226 132.637 191.791 132.637 192.484V197.46H131.395V192.226C131.395 191.596 131.239 191.091 130.926 190.71C130.614 190.325 130.181 190.132 129.629 190.132C129.02 190.132 128.504 190.354 128.083 190.796C127.666 191.234 127.458 191.796 127.458 192.484V197.46H126.208ZM142.408 197.703C141.684 197.703 141.072 197.497 140.572 197.085C140.072 196.674 139.822 196.091 139.822 195.335C139.822 194.877 139.916 194.466 140.104 194.101C140.296 193.736 140.562 193.437 140.901 193.203C141.239 192.963 141.617 192.77 142.033 192.625C142.45 192.479 142.911 192.375 143.416 192.312L145.151 192.085V191.89C145.151 191.25 144.963 190.783 144.588 190.492C144.218 190.2 143.76 190.054 143.213 190.054C142.645 190.054 142.169 190.203 141.783 190.5C141.398 190.796 141.182 191.187 141.135 191.671H139.932C139.984 190.838 140.32 190.179 140.94 189.695C141.559 189.21 142.328 188.968 143.244 188.968C143.562 188.968 143.867 189.002 144.158 189.07C144.45 189.132 144.731 189.239 145.002 189.39C145.273 189.536 145.507 189.721 145.705 189.945C145.903 190.164 146.062 190.442 146.182 190.781C146.302 191.114 146.361 191.489 146.361 191.906V195C146.361 195.046 146.377 195.867 146.408 197.46H145.213V195.976C144.921 196.518 144.536 196.942 144.057 197.25C143.583 197.552 143.033 197.703 142.408 197.703ZM141.033 195.25C141.033 195.661 141.174 195.992 141.455 196.242C141.742 196.486 142.109 196.609 142.557 196.609C143.276 196.609 143.888 196.338 144.393 195.796C144.898 195.25 145.151 194.497 145.151 193.539V193.093L143.432 193.335C142.64 193.45 142.041 193.671 141.635 194C141.234 194.322 141.033 194.739 141.033 195.25ZM148.953 197.46V189.203H150.203V197.46H148.953ZM148.68 186.726C148.68 186.481 148.768 186.27 148.945 186.093C149.122 185.916 149.333 185.828 149.578 185.828C149.818 185.828 150.023 185.916 150.195 186.093C150.372 186.27 150.461 186.481 150.461 186.726C150.461 186.966 150.372 187.171 150.195 187.343C150.023 187.515 149.818 187.601 149.578 187.601C149.333 187.601 149.122 187.515 148.945 187.343C148.768 187.171 148.68 186.966 148.68 186.726ZM152.779 197.46V185.539H154.029V197.46H152.779ZM157.917 197.289C157.73 197.476 157.503 197.57 157.238 197.57C156.972 197.57 156.748 197.476 156.566 197.289C156.389 197.101 156.3 196.875 156.3 196.609C156.3 196.348 156.389 196.127 156.566 195.945C156.748 195.763 156.972 195.671 157.238 195.671C157.503 195.671 157.73 195.763 157.917 195.945C158.105 196.127 158.199 196.348 158.199 196.609C158.199 196.875 158.105 197.101 157.917 197.289ZM163.829 197.703C163.251 197.703 162.712 197.601 162.212 197.398C161.717 197.19 161.287 196.901 160.923 196.531C160.563 196.161 160.28 195.703 160.071 195.156C159.868 194.604 159.767 193.997 159.767 193.335C159.767 192.039 160.149 190.986 160.915 190.179C161.681 189.372 162.652 188.968 163.829 188.968C164.777 188.968 165.595 189.21 166.282 189.695C166.975 190.179 167.384 190.869 167.509 191.765H166.259C166.123 191.213 165.832 190.804 165.384 190.539C164.936 190.268 164.418 190.132 163.829 190.132C163.022 190.132 162.35 190.427 161.813 191.015C161.277 191.604 161.009 192.377 161.009 193.335C161.009 194.294 161.277 195.067 161.813 195.656C162.35 196.239 163.022 196.531 163.829 196.531C164.449 196.531 164.978 196.377 165.415 196.07C165.853 195.763 166.134 195.33 166.259 194.773H167.509C167.384 195.69 166.98 196.408 166.298 196.929C165.621 197.445 164.798 197.703 163.829 197.703ZM173.108 197.703C172.546 197.703 172.017 197.604 171.522 197.406C171.027 197.208 170.592 196.929 170.217 196.57C169.848 196.205 169.553 195.744 169.335 195.187C169.121 194.63 169.014 194.013 169.014 193.335C169.014 192.653 169.121 192.033 169.335 191.476C169.553 190.919 169.85 190.46 170.225 190.101C170.6 189.736 171.033 189.458 171.522 189.265C172.017 189.067 172.546 188.968 173.108 188.968C173.671 188.968 174.197 189.067 174.686 189.265C175.181 189.458 175.616 189.736 175.991 190.101C176.366 190.46 176.66 190.919 176.874 191.476C177.092 192.033 177.202 192.653 177.202 193.335C177.202 194.013 177.092 194.63 176.874 195.187C176.66 195.744 176.366 196.205 175.991 196.57C175.616 196.929 175.181 197.208 174.686 197.406C174.191 197.604 173.665 197.703 173.108 197.703ZM170.257 193.335C170.257 193.856 170.332 194.325 170.483 194.742C170.639 195.153 170.85 195.489 171.116 195.75C171.382 196.01 171.684 196.208 172.022 196.343C172.361 196.479 172.723 196.546 173.108 196.546C173.483 196.546 173.837 196.479 174.171 196.343C174.509 196.203 174.811 196.005 175.077 195.75C175.348 195.489 175.561 195.151 175.717 194.734C175.874 194.317 175.952 193.851 175.952 193.335C175.952 192.809 175.874 192.338 175.717 191.921C175.561 191.5 175.348 191.158 175.077 190.898C174.811 190.638 174.509 190.44 174.171 190.304C173.837 190.169 173.483 190.101 173.108 190.101C172.723 190.101 172.361 190.169 172.022 190.304C171.684 190.44 171.382 190.638 171.116 190.898C170.85 191.158 170.639 191.5 170.483 191.921C170.332 192.338 170.257 192.809 170.257 193.335ZM179.332 197.46V189.203H180.535V190.359C180.749 189.984 181.069 189.658 181.496 189.382C181.929 189.106 182.434 188.968 183.012 188.968C183.611 188.968 184.119 189.104 184.535 189.375C184.952 189.645 185.259 190.02 185.457 190.5C185.676 190.098 186.033 189.744 186.528 189.437C187.022 189.125 187.58 188.968 188.2 188.968C189.064 188.968 189.739 189.252 190.223 189.82C190.707 190.388 190.95 191.117 190.95 192.007V197.46H189.7V192.226C189.7 191.591 189.543 191.083 189.231 190.703C188.924 190.322 188.494 190.132 187.942 190.132C187.338 190.132 186.822 190.351 186.395 190.789C185.973 191.226 185.762 191.791 185.762 192.484V197.46H184.52V192.226C184.52 191.596 184.364 191.091 184.051 190.71C183.739 190.325 183.306 190.132 182.754 190.132C182.145 190.132 181.629 190.354 181.207 190.796C180.791 191.234 180.582 191.796 180.582 192.484V197.46H179.332Z" fill="#4D5761"/>
<path d="M68.4453 251.46V241.734H64.6562V239.937H74.1719V241.734H70.3672V251.46H68.4453ZM77.9609 251.703C77.3828 251.703 76.8385 251.601 76.3281 251.398C75.8229 251.19 75.3828 250.898 75.0078 250.523C74.6328 250.148 74.3359 249.682 74.1172 249.125C73.9036 248.562 73.7969 247.942 73.7969 247.265C73.7969 246.593 73.9089 245.979 74.1328 245.421C74.3568 244.859 74.6589 244.393 75.0391 244.023C75.4193 243.653 75.8594 243.367 76.3594 243.164C76.8646 242.955 77.3984 242.851 77.9609 242.851C79.2422 242.851 80.2552 243.309 81 244.226C81.7448 245.143 82.0312 246.317 81.8594 247.75H75.6406C75.7135 248.515 75.9609 249.096 76.3828 249.492C76.8047 249.888 77.3307 250.085 77.9609 250.085C78.4401 250.085 78.8516 249.979 79.1953 249.765C79.5391 249.546 79.7708 249.242 79.8906 248.851H81.8281C81.6406 249.742 81.1979 250.44 80.5 250.945C79.8073 251.45 78.9609 251.703 77.9609 251.703ZM75.7031 246.39H79.9297C79.8984 245.781 79.7005 245.309 79.3359 244.976C78.9766 244.638 78.513 244.468 77.9453 244.468C77.3984 244.468 76.9219 244.632 76.5156 244.96C76.1146 245.283 75.8438 245.76 75.7031 246.39ZM83.7266 251.46V239.539H85.6328V251.46H83.7266ZM91.6172 251.703C91.0391 251.703 90.4948 251.601 89.9844 251.398C89.4792 251.19 89.0391 250.898 88.6641 250.523C88.2891 250.148 87.9922 249.682 87.7734 249.125C87.5599 248.562 87.4531 247.942 87.4531 247.265C87.4531 246.593 87.5651 245.979 87.7891 245.421C88.013 244.859 88.3151 244.393 88.6953 244.023C89.0755 243.653 89.5156 243.367 90.0156 243.164C90.5208 242.955 91.0547 242.851 91.6172 242.851C92.8984 242.851 93.9115 243.309 94.6562 244.226C95.401 245.143 95.6875 246.317 95.5156 247.75H89.2969C89.3698 248.515 89.6172 249.096 90.0391 249.492C90.4609 249.888 90.987 250.085 91.6172 250.085C92.0964 250.085 92.5078 249.979 92.8516 249.765C93.1953 249.546 93.4271 249.242 93.5469 248.851H95.4844C95.2969 249.742 94.8542 250.44 94.1562 250.945C93.4635 251.45 92.6172 251.703 91.6172 251.703ZM89.3594 246.39H93.5859C93.5547 245.781 93.3568 245.309 92.9922 244.976C92.6328 244.638 92.1693 244.468 91.6016 244.468C91.0547 244.468 90.5781 244.632 90.1719 244.96C89.7708 245.283 89.5 245.76 89.3594 246.39ZM98.0156 242.5C98.0156 242.041 98.0703 241.63 98.1797 241.265C98.2891 240.901 98.4375 240.598 98.625 240.359C98.8125 240.114 99.0365 239.914 99.2969 239.757C99.5625 239.596 99.8385 239.481 100.125 239.414C100.417 239.341 100.727 239.304 101.055 239.304C101.461 239.304 101.839 239.356 102.188 239.46V241.046C101.917 240.994 101.677 240.968 101.469 240.968C101.323 240.968 101.185 240.979 101.055 241C100.93 241.02 100.794 241.065 100.648 241.132C100.503 241.2 100.378 241.291 100.273 241.406C100.174 241.515 100.091 241.669 100.023 241.867C99.9557 242.059 99.9219 242.286 99.9219 242.546V243.093H101.969V244.679H99.9219V251.46H98.0156V244.679H96.4141V243.093H98.0156V242.5ZM107.086 251.703C106.279 251.703 105.552 251.531 104.906 251.187C104.266 250.843 103.753 250.333 103.367 249.656C102.987 248.973 102.797 248.177 102.797 247.265C102.797 246.359 102.99 245.567 103.375 244.89C103.76 244.213 104.273 243.705 104.914 243.367C105.56 243.023 106.284 242.851 107.086 242.851C107.888 242.851 108.609 243.023 109.25 243.367C109.896 243.705 110.411 244.213 110.797 244.89C111.182 245.567 111.375 246.359 111.375 247.265C111.375 248.177 111.182 248.973 110.797 249.656C110.411 250.333 109.896 250.843 109.25 251.187C108.609 251.531 107.888 251.703 107.086 251.703ZM105.383 245.234C104.93 245.703 104.703 246.38 104.703 247.265C104.703 248.151 104.93 248.83 105.383 249.304C105.841 249.773 106.409 250.007 107.086 250.007C107.758 250.007 108.323 249.77 108.781 249.296C109.24 248.822 109.469 248.145 109.469 247.265C109.469 246.385 109.24 245.71 108.781 245.242C108.323 244.768 107.758 244.531 107.086 244.531C106.409 244.531 105.841 244.765 105.383 245.234ZM113.148 251.46V243.093H114.992V244.132C115.221 243.783 115.562 243.484 116.016 243.234C116.469 242.979 116.997 242.851 117.602 242.851C118.56 242.851 119.307 243.143 119.844 243.726C120.385 244.309 120.656 245.059 120.656 245.976V251.46H118.75V246.359C118.75 245.838 118.599 245.408 118.297 245.07C117.995 244.731 117.581 244.562 117.055 244.562C116.503 244.562 116.031 244.757 115.641 245.148C115.25 245.533 115.055 246.02 115.055 246.609V251.46H113.148ZM122.867 251.46V243.093H124.711V244.132C124.94 243.783 125.281 243.484 125.734 243.234C126.188 242.979 126.716 242.851 127.32 242.851C128.279 242.851 129.026 243.143 129.562 243.726C130.104 244.309 130.375 245.059 130.375 245.976V251.46H128.469V246.359C128.469 245.838 128.318 245.408 128.016 245.07C127.714 244.731 127.299 244.562 126.773 244.562C126.221 244.562 125.75 244.757 125.359 245.148C124.969 245.533 124.773 246.02 124.773 246.609V251.46H122.867ZM135.5 251.703C134.568 251.703 133.839 251.411 133.312 250.828C132.786 250.244 132.523 249.494 132.523 248.578V243.093H134.43V248.195C134.43 248.716 134.573 249.145 134.859 249.484C135.146 249.822 135.542 249.992 136.047 249.992C136.583 249.992 137.036 249.796 137.406 249.406C137.781 249.01 137.969 248.515 137.969 247.921V243.093H139.867V251.46H138.047V250.406C137.828 250.755 137.495 251.059 137.047 251.32C136.604 251.575 136.089 251.703 135.5 251.703ZM142.07 251.46V243.093H143.914V244.132C144.122 243.783 144.43 243.484 144.836 243.234C145.247 242.979 145.74 242.851 146.312 242.851C146.854 242.851 147.331 242.973 147.742 243.218C148.154 243.458 148.471 243.794 148.695 244.226C148.935 243.856 149.294 243.536 149.773 243.265C150.258 242.989 150.789 242.851 151.367 242.851C152.263 242.851 152.964 243.143 153.469 243.726C153.979 244.304 154.234 245.054 154.234 245.976V251.46H152.328V246.273C152.328 245.752 152.198 245.338 151.938 245.031C151.677 244.718 151.318 244.562 150.859 244.562C150.359 244.562 149.94 244.739 149.602 245.093C149.263 245.447 149.094 245.921 149.094 246.515V251.46H147.195V246.273C147.195 245.757 147.065 245.343 146.805 245.031C146.549 244.718 146.193 244.562 145.734 244.562C145.229 244.562 144.81 244.739 144.477 245.093C144.143 245.447 143.977 245.921 143.977 246.515V251.46H142.07ZM156.445 251.46V243.093H158.289V244.132C158.497 243.783 158.805 243.484 159.211 243.234C159.622 242.979 160.115 242.851 160.688 242.851C161.229 242.851 161.706 242.973 162.117 243.218C162.529 243.458 162.846 243.794 163.07 244.226C163.31 243.856 163.669 243.536 164.148 243.265C164.633 242.989 165.164 242.851 165.742 242.851C166.638 242.851 167.339 243.143 167.844 243.726C168.354 244.304 168.609 245.054 168.609 245.976V251.46H166.703V246.273C166.703 245.752 166.573 245.338 166.312 245.031C166.052 244.718 165.693 244.562 165.234 244.562C164.734 244.562 164.315 244.739 163.977 245.093C163.638 245.447 163.469 245.921 163.469 246.515V251.46H161.57V246.273C161.57 245.757 161.44 245.343 161.18 245.031C160.924 244.718 160.568 244.562 160.109 244.562C159.604 244.562 159.185 244.739 158.852 245.093C158.518 245.447 158.352 245.921 158.352 246.515V251.46H156.445ZM174.555 251.703C173.977 251.703 173.432 251.601 172.922 251.398C172.417 251.19 171.977 250.898 171.602 250.523C171.227 250.148 170.93 249.682 170.711 249.125C170.497 248.562 170.391 247.942 170.391 247.265C170.391 246.593 170.503 245.979 170.727 245.421C170.951 244.859 171.253 244.393 171.633 244.023C172.013 243.653 172.453 243.367 172.953 243.164C173.458 242.955 173.992 242.851 174.555 242.851C175.836 242.851 176.849 243.309 177.594 244.226C178.339 245.143 178.625 246.317 178.453 247.75H172.234C172.307 248.515 172.555 249.096 172.977 249.492C173.398 249.888 173.924 250.085 174.555 250.085C175.034 250.085 175.445 249.979 175.789 249.765C176.133 249.546 176.365 249.242 176.484 248.851H178.422C178.234 249.742 177.792 250.44 177.094 250.945C176.401 251.45 175.555 251.703 174.555 251.703ZM172.297 246.39H176.523C176.492 245.781 176.294 245.309 175.93 244.976C175.57 244.638 175.107 244.468 174.539 244.468C173.992 244.468 173.516 244.632 173.109 244.96C172.708 245.283 172.438 245.76 172.297 246.39ZM180.289 251.46V243.093H182.117V244.578C182.294 244.109 182.589 243.731 183 243.445C183.417 243.158 183.88 243.015 184.391 243.015C184.688 243.015 184.995 243.052 185.312 243.125V245.015C184.958 244.958 184.667 244.929 184.438 244.929C183.766 244.929 183.221 245.153 182.805 245.601C182.388 246.044 182.18 246.716 182.18 247.617V251.46H180.289ZM187.969 251.57C187.615 251.57 187.312 251.445 187.062 251.195C186.812 250.945 186.688 250.643 186.688 250.289C186.688 249.945 186.812 249.651 187.062 249.406C187.318 249.156 187.62 249.031 187.969 249.031C188.328 249.031 188.633 249.156 188.883 249.406C189.138 249.651 189.266 249.945 189.266 250.289C189.266 250.643 189.138 250.945 188.883 251.195C188.633 251.445 188.328 251.57 187.969 251.57ZM186.688 244.242C186.688 243.898 186.812 243.604 187.062 243.359C187.318 243.109 187.62 242.984 187.969 242.984C188.328 242.984 188.633 243.109 188.883 243.359C189.138 243.604 189.266 243.898 189.266 244.242C189.266 244.596 189.138 244.898 188.883 245.148C188.633 245.398 188.328 245.523 187.969 245.523C187.615 245.523 187.312 245.398 187.062 245.148C186.812 244.898 186.688 244.596 186.688 244.242Z" fill="#4D5761"/>
<rect x="64.5" y="260.96" width="477" height="51" rx="7.5" fill="white"/>
<rect x="64.5" y="260.96" width="477" height="51" rx="7.5" stroke="#E2E4E9"/>
<path d="M84.2422 292.21V288.609H80.75V287.554H84.2422V283.953H85.375V287.554H88.8516V288.609H85.375V292.21H84.2422ZM92.3337 293.46V283.476L89.5368 284.789V283.507L92.654 281.937H93.5993V293.46H92.3337ZM96.0658 293.46V292.468L100.417 287.734C100.662 287.468 100.863 287.231 101.019 287.023C101.18 286.809 101.334 286.526 101.48 286.171C101.626 285.817 101.699 285.458 101.699 285.093C101.699 284.463 101.498 283.937 101.097 283.515C100.696 283.093 100.186 282.882 99.5658 282.882C98.8419 282.882 98.2507 283.138 97.7924 283.648C97.3392 284.153 97.1257 284.778 97.1517 285.523H95.8861C95.8549 284.44 96.1882 283.533 96.8861 282.804C97.5892 282.07 98.4877 281.703 99.5814 281.703C100.561 281.703 101.373 282.015 102.019 282.64C102.67 283.26 102.995 284.072 102.995 285.078C102.995 285.38 102.962 285.674 102.894 285.96C102.826 286.247 102.751 286.492 102.667 286.695C102.584 286.893 102.464 287.106 102.308 287.335C102.157 287.565 102.032 287.736 101.933 287.851C101.839 287.966 101.706 288.119 101.535 288.312L97.8549 292.312H103.167V293.46H96.0658ZM108.251 293.703C107.105 293.703 106.178 293.348 105.47 292.64C104.767 291.927 104.436 291.044 104.478 289.992H105.728C105.728 290.736 105.962 291.354 106.431 291.843C106.899 292.333 107.519 292.578 108.29 292.578C108.993 292.578 109.603 292.356 110.118 291.914C110.634 291.466 110.892 290.888 110.892 290.179C110.892 289.46 110.663 288.867 110.204 288.398C109.746 287.924 109.108 287.687 108.29 287.687C107.832 287.687 107.41 287.794 107.024 288.007L106.462 287.125L110.235 283.125H104.798V281.937H112.142V282.929L108.478 286.648H108.509C109.071 286.648 109.584 286.744 110.048 286.937C110.517 287.13 110.899 287.39 111.196 287.718C111.498 288.041 111.73 288.414 111.892 288.835C112.058 289.257 112.142 289.705 112.142 290.179C112.142 290.851 111.965 291.458 111.61 292C111.256 292.541 110.782 292.96 110.189 293.257C109.595 293.554 108.949 293.703 108.251 293.703ZM123.411 293.46V290.562H118.145V289.507L123.473 281.937H124.676V289.507H126.614V290.562H124.676V293.46H123.411ZM119.536 289.507H123.411V284.054L119.536 289.507ZM131.666 293.703C131.177 293.703 130.713 293.627 130.276 293.476C129.838 293.325 129.45 293.111 129.111 292.835C128.773 292.559 128.502 292.205 128.299 291.773C128.101 291.341 128.002 290.859 128.002 290.328H129.252C129.247 290.994 129.481 291.536 129.955 291.953C130.434 292.369 131.01 292.578 131.682 292.578C132.432 292.578 133.057 292.341 133.557 291.867C134.057 291.393 134.307 290.768 134.307 289.992C134.307 289.242 134.067 288.627 133.588 288.148C133.109 287.669 132.5 287.429 131.76 287.429C131.27 287.429 130.809 287.546 130.377 287.781C129.945 288.01 129.627 288.299 129.424 288.648L128.276 288.195L129.479 281.937H135.19V283.125H130.471L129.666 287.046C129.953 286.822 130.294 286.64 130.69 286.5C131.091 286.359 131.492 286.289 131.893 286.289C132.96 286.289 133.838 286.63 134.526 287.312C135.213 287.994 135.557 288.888 135.557 289.992C135.557 290.747 135.385 291.408 135.041 291.976C134.697 292.544 134.231 292.973 133.643 293.265C133.059 293.557 132.401 293.703 131.666 293.703ZM141.031 293.703C140.292 293.703 139.627 293.533 139.039 293.195C138.456 292.851 138.01 292.401 137.703 291.843C137.396 291.281 137.242 290.669 137.242 290.007C137.242 289.622 137.289 289.239 137.383 288.859C137.476 288.473 137.614 288.096 137.797 287.726C137.979 287.356 138.156 287.031 138.328 286.75C138.5 286.468 138.713 286.145 138.969 285.781L141.594 281.937H143.125L139.672 286.851C140.104 286.544 140.588 286.39 141.125 286.39C142.203 286.39 143.081 286.736 143.758 287.429C144.435 288.117 144.773 288.976 144.773 290.007C144.773 291.028 144.424 291.901 143.726 292.625C143.034 293.343 142.135 293.703 141.031 293.703ZM138.515 290.007C138.515 290.721 138.747 291.322 139.211 291.812C139.68 292.302 140.286 292.546 141.031 292.546C141.771 292.546 142.364 292.304 142.812 291.82C143.265 291.33 143.492 290.726 143.492 290.007C143.492 289.299 143.268 288.71 142.82 288.242C142.372 287.773 141.776 287.539 141.031 287.539C140.281 287.539 139.674 287.773 139.211 288.242C138.747 288.71 138.515 289.299 138.515 290.007ZM152.988 293.46C153.024 292.549 153.131 291.656 153.308 290.781C153.485 289.906 153.74 289.026 154.074 288.14C154.412 287.25 154.86 286.375 155.417 285.515C155.98 284.656 156.636 283.854 157.386 283.109H151.066V281.937H158.878V282.984C158.092 283.755 157.407 284.578 156.824 285.453C156.245 286.322 155.784 287.208 155.441 288.109C155.097 289.005 154.837 289.893 154.659 290.773C154.482 291.648 154.378 292.544 154.347 293.46H152.988ZM165.97 293.328C165.386 293.578 164.733 293.703 164.009 293.703C163.285 293.703 162.634 293.578 162.056 293.328C161.478 293.078 161.009 292.692 160.649 292.171C160.29 291.651 160.11 291.031 160.11 290.312C160.11 289.916 160.173 289.544 160.298 289.195C160.428 288.841 160.597 288.544 160.806 288.304C161.019 288.059 161.248 287.856 161.493 287.695C161.743 287.533 161.996 287.424 162.251 287.367C161.73 287.164 161.3 286.835 160.962 286.382C160.629 285.924 160.462 285.382 160.462 284.757C160.462 284.268 160.561 283.825 160.759 283.429C160.957 283.033 161.222 282.713 161.556 282.468C161.889 282.218 162.264 282.028 162.681 281.898C163.103 281.768 163.545 281.703 164.009 281.703C164.472 281.703 164.915 281.768 165.337 281.898C165.759 282.028 166.136 282.218 166.47 282.468C166.808 282.713 167.076 283.033 167.274 283.429C167.478 283.825 167.579 284.268 167.579 284.757C167.579 285.382 167.41 285.924 167.071 286.382C166.738 286.835 166.311 287.164 165.79 287.367C166.337 287.492 166.829 287.822 167.267 288.359C167.709 288.895 167.931 289.546 167.931 290.312C167.931 291.031 167.748 291.651 167.384 292.171C167.024 292.692 166.553 293.078 165.97 293.328ZM161.618 289.195C161.478 289.502 161.407 289.851 161.407 290.242C161.407 290.632 161.478 290.981 161.618 291.289C161.764 291.591 161.959 291.835 162.204 292.023C162.449 292.205 162.722 292.343 163.024 292.437C163.332 292.531 163.66 292.578 164.009 292.578C164.363 292.578 164.694 292.531 165.001 292.437C165.308 292.343 165.584 292.205 165.829 292.023C166.079 291.835 166.274 291.591 166.415 291.289C166.561 290.981 166.634 290.632 166.634 290.242C166.634 289.476 166.381 288.893 165.876 288.492C165.371 288.091 164.748 287.89 164.009 287.89C163.66 287.89 163.332 287.94 163.024 288.039C162.717 288.132 162.441 288.273 162.196 288.46C161.957 288.643 161.764 288.888 161.618 289.195ZM161.72 284.789C161.72 285.424 161.938 285.916 162.376 286.265C162.819 286.614 163.363 286.789 164.009 286.789C164.665 286.789 165.212 286.614 165.649 286.265C166.092 285.916 166.313 285.424 166.313 284.789C166.313 284.169 166.092 283.687 165.649 283.343C165.207 282.994 164.66 282.82 164.009 282.82C163.363 282.82 162.819 282.994 162.376 283.343C161.938 283.687 161.72 284.169 161.72 284.789ZM173.397 281.703C174.137 281.703 174.798 281.875 175.382 282.218C175.97 282.557 176.418 283.007 176.725 283.57C177.033 284.127 177.186 284.736 177.186 285.398C177.186 286.122 177.033 286.812 176.725 287.468C176.423 288.125 176.001 288.841 175.46 289.617L172.835 293.46H171.303L174.757 288.546C174.319 288.859 173.835 289.015 173.303 289.015C172.225 289.015 171.348 288.671 170.671 287.984C169.993 287.291 169.655 286.429 169.655 285.398C169.655 284.377 170.001 283.507 170.694 282.789C171.392 282.065 172.293 281.703 173.397 281.703ZM170.928 285.398C170.928 286.101 171.152 286.687 171.6 287.156C172.053 287.625 172.652 287.859 173.397 287.859C174.147 287.859 174.751 287.627 175.21 287.164C175.673 286.695 175.905 286.106 175.905 285.398C175.905 284.684 175.673 284.083 175.21 283.593C174.746 283.098 174.142 282.851 173.397 282.851C172.658 282.851 172.061 283.096 171.608 283.585C171.155 284.075 170.928 284.679 170.928 285.398ZM182.965 293.703C181.684 293.703 180.7 293.177 180.012 292.125C179.325 291.072 178.981 289.609 178.981 287.734C178.981 285.854 179.325 284.38 180.012 283.312C180.7 282.239 181.684 281.703 182.965 281.703C184.241 281.703 185.223 282.239 185.91 283.312C186.603 284.385 186.95 285.859 186.95 287.734C186.95 289.609 186.603 291.072 185.91 292.125C185.223 293.177 184.241 293.703 182.965 293.703ZM180.895 284.062C180.395 284.921 180.145 286.145 180.145 287.734C180.145 289.322 180.395 290.536 180.895 291.375C181.395 292.213 182.085 292.632 182.965 292.632C183.83 292.632 184.512 292.213 185.012 291.375C185.512 290.531 185.762 289.317 185.762 287.734C185.762 286.151 185.512 284.929 185.012 284.07C184.512 283.205 183.83 282.773 182.965 282.773C182.09 282.773 181.4 283.203 180.895 284.062ZM182.02 287.703C182.02 287.442 182.111 287.221 182.293 287.039C182.476 286.851 182.7 286.757 182.965 286.757C183.231 286.757 183.457 286.851 183.645 287.039C183.832 287.221 183.926 287.442 183.926 287.703C183.926 287.968 183.832 288.195 183.645 288.382C183.457 288.57 183.231 288.664 182.965 288.664C182.7 288.664 182.476 288.57 182.293 288.382C182.111 288.195 182.02 287.968 182.02 287.703Z" fill="#4D5761"/>
<path d="M65.6797 347.46V335.937H67.6953L73.6953 344.531V335.937H75.5312V347.46H73.5156L67.5156 338.882V347.46H65.6797ZM80.1016 347.703C79.3359 347.703 78.6979 347.484 78.1875 347.046C77.6823 346.609 77.4297 346 77.4297 345.218C77.4297 344.739 77.5312 344.315 77.7344 343.945C77.9375 343.57 78.2214 343.265 78.5859 343.031C78.9505 342.791 79.3516 342.601 79.7891 342.46C80.2266 342.315 80.7109 342.21 81.2422 342.148L82.6484 341.992V341.828C82.6484 341.348 82.4948 340.989 82.1875 340.75C81.8802 340.51 81.5 340.39 81.0469 340.39C80.5833 340.39 80.1979 340.51 79.8906 340.75C79.5885 340.989 79.4141 341.312 79.3672 341.718H77.5391C77.6068 340.807 77.9635 340.101 78.6094 339.601C79.2552 339.101 80.0833 338.851 81.0938 338.851C81.4375 338.851 81.763 338.882 82.0703 338.945C82.3828 339.007 82.6875 339.114 82.9844 339.265C83.2812 339.416 83.5365 339.609 83.75 339.843C83.9688 340.072 84.1432 340.372 84.2734 340.742C84.4036 341.106 84.4688 341.523 84.4688 341.992V345.015C84.4688 345.708 84.5078 346.523 84.5859 347.46H82.7422V346.164C82.1172 347.19 81.237 347.703 80.1016 347.703ZM79.2891 345.062C79.2891 345.385 79.401 345.651 79.625 345.859C79.849 346.062 80.1406 346.164 80.5 346.164C81.0833 346.164 81.5859 345.94 82.0078 345.492C82.4349 345.039 82.6484 344.437 82.6484 343.687V343.304L81.1406 343.539C80.526 343.627 80.0625 343.804 79.75 344.07C79.4427 344.33 79.2891 344.661 79.2891 345.062ZM90.4375 347.703C89.8542 347.703 89.3073 347.604 88.7969 347.406C88.2865 347.203 87.8411 346.916 87.4609 346.546C87.0859 346.171 86.7891 345.703 86.5703 345.14C86.3516 344.578 86.2422 343.953 86.2422 343.265C86.2422 342.609 86.3516 342.005 86.5703 341.453C86.7891 340.895 87.0859 340.429 87.4609 340.054C87.8411 339.674 88.2865 339.38 88.7969 339.171C89.3073 338.958 89.8542 338.851 90.4375 338.851C91.4792 338.851 92.362 339.125 93.0859 339.671C93.8099 340.213 94.2266 340.973 94.3359 341.953H92.4375C92.3229 341.5 92.0833 341.156 91.7188 340.921C91.3542 340.682 90.9271 340.562 90.4375 340.562C89.7969 340.562 89.2552 340.809 88.8125 341.304C88.3698 341.799 88.1484 342.453 88.1484 343.265C88.1484 344.088 88.3698 344.75 88.8125 345.25C89.2552 345.744 89.7969 345.992 90.4375 345.992C90.9479 345.992 91.3776 345.869 91.7266 345.625C92.0807 345.375 92.3177 345.02 92.4375 344.562H94.3359C94.2161 345.546 93.8047 346.317 93.1016 346.875C92.3984 347.427 91.5104 347.703 90.4375 347.703ZM96.0781 347.46V335.539H97.9844V340.039C98.2292 339.705 98.5703 339.424 99.0078 339.195C99.4453 338.966 99.9531 338.851 100.531 338.851C101.49 338.851 102.237 339.143 102.773 339.726C103.315 340.309 103.586 341.059 103.586 341.976V347.46H101.68V342.359C101.68 341.838 101.529 341.408 101.227 341.07C100.924 340.731 100.51 340.562 99.9844 340.562C99.4323 340.562 98.9609 340.757 98.5703 341.148C98.1797 341.533 97.9844 342.02 97.9844 342.609V347.46H96.0781ZM105.797 347.46V339.093H107.625V340.578C107.802 340.109 108.096 339.731 108.508 339.445C108.924 339.158 109.388 339.015 109.898 339.015C110.195 339.015 110.503 339.052 110.82 339.125V341.015C110.466 340.958 110.174 340.929 109.945 340.929C109.273 340.929 108.729 341.153 108.312 341.601C107.896 342.044 107.688 342.716 107.688 343.617V347.46H105.797ZM112.359 347.46V339.093H114.266V347.46H112.359ZM112.453 337.703C112.224 337.463 112.109 337.179 112.109 336.851C112.109 336.523 112.224 336.242 112.453 336.007C112.688 335.773 112.971 335.656 113.305 335.656C113.638 335.656 113.924 335.773 114.164 336.007C114.404 336.242 114.523 336.523 114.523 336.851C114.523 337.179 114.404 337.463 114.164 337.703C113.924 337.937 113.638 338.054 113.305 338.054C112.971 338.054 112.688 337.937 112.453 337.703ZM120.281 347.703C119.698 347.703 119.151 347.604 118.641 347.406C118.13 347.203 117.685 346.916 117.305 346.546C116.93 346.171 116.633 345.703 116.414 345.14C116.195 344.578 116.086 343.953 116.086 343.265C116.086 342.609 116.195 342.005 116.414 341.453C116.633 340.895 116.93 340.429 117.305 340.054C117.685 339.674 118.13 339.38 118.641 339.171C119.151 338.958 119.698 338.851 120.281 338.851C121.323 338.851 122.206 339.125 122.93 339.671C123.654 340.213 124.07 340.973 124.18 341.953H122.281C122.167 341.5 121.927 341.156 121.562 340.921C121.198 340.682 120.771 340.562 120.281 340.562C119.641 340.562 119.099 340.809 118.656 341.304C118.214 341.799 117.992 342.453 117.992 343.265C117.992 344.088 118.214 344.75 118.656 345.25C119.099 345.744 119.641 345.992 120.281 345.992C120.792 345.992 121.221 345.869 121.57 345.625C121.924 345.375 122.161 345.02 122.281 344.562H124.18C124.06 345.546 123.648 346.317 122.945 346.875C122.242 347.427 121.354 347.703 120.281 347.703ZM125.922 347.46V335.539H127.828V340.039C128.073 339.705 128.414 339.424 128.852 339.195C129.289 338.966 129.797 338.851 130.375 338.851C131.333 338.851 132.081 339.143 132.617 339.726C133.159 340.309 133.43 341.059 133.43 341.976V347.46H131.523V342.359C131.523 341.838 131.372 341.408 131.07 341.07C130.768 340.731 130.354 340.562 129.828 340.562C129.276 340.562 128.805 340.757 128.414 341.148C128.023 341.533 127.828 342.02 127.828 342.609V347.46H125.922ZM139.031 347.617C137.078 347.617 136.102 346.632 136.102 344.664V340.679H134.5V339.093H136.102V337.25L138.008 336.289V339.093H140.055V340.679H138.008V344.609C138.008 345.505 138.466 345.953 139.383 345.953C139.654 345.953 139.951 345.921 140.273 345.859V347.46C139.893 347.565 139.479 347.617 139.031 347.617Z" fill="#4D5761"/>
<rect x="64.5" y="356.96" width="477" height="91" rx="7.5" fill="white"/>
<rect x="64.5" y="356.96" width="477" height="91" rx="7.5" stroke="#E2E4E9"/>
<path d="M81.4844 389.46V377.937H82.8516L89.6641 387.492V377.937H90.9297V389.46H89.5703L82.75 379.921V389.46H81.4844ZM95.8103 389.703C95.0863 389.703 94.4743 389.497 93.9743 389.085C93.4743 388.674 93.2243 388.091 93.2243 387.335C93.2243 386.877 93.3181 386.466 93.5056 386.101C93.6983 385.736 93.9639 385.437 94.3024 385.203C94.641 384.963 95.0186 384.77 95.4353 384.625C95.8519 384.479 96.3129 384.375 96.8181 384.312L98.5524 384.085V383.89C98.5524 383.25 98.3649 382.783 97.9899 382.492C97.6201 382.2 97.1618 382.054 96.6149 382.054C96.0472 382.054 95.5707 382.203 95.1853 382.5C94.7998 382.796 94.5837 383.187 94.5368 383.671H93.3337C93.3858 382.838 93.7217 382.179 94.3415 381.695C94.9613 381.21 95.7295 380.968 96.6462 380.968C96.9639 380.968 97.2686 381.002 97.5603 381.07C97.8519 381.132 98.1332 381.239 98.404 381.39C98.6748 381.536 98.9092 381.721 99.1071 381.945C99.305 382.164 99.4639 382.442 99.5837 382.781C99.7035 383.114 99.7634 383.489 99.7634 383.906V387C99.7634 387.046 99.779 387.867 99.8103 389.46H98.6149V387.976C98.3233 388.518 97.9379 388.942 97.4587 389.25C96.9847 389.552 96.4353 389.703 95.8103 389.703ZM94.4353 387.25C94.4353 387.661 94.5759 387.992 94.8571 388.242C95.1436 388.486 95.5108 388.609 95.9587 388.609C96.6774 388.609 97.2894 388.338 97.7946 387.796C98.2998 387.25 98.5524 386.497 98.5524 385.539V385.093L96.8337 385.335C96.042 385.45 95.4431 385.671 95.0368 386C94.6358 386.322 94.4353 386.739 94.4353 387.25ZM105.925 389.703C105.347 389.703 104.808 389.601 104.308 389.398C103.813 389.19 103.384 388.901 103.019 388.531C102.66 388.161 102.376 387.703 102.167 387.156C101.964 386.604 101.863 385.997 101.863 385.335C101.863 384.039 102.246 382.986 103.011 382.179C103.777 381.372 104.748 380.968 105.925 380.968C106.873 380.968 107.691 381.21 108.378 381.695C109.071 382.179 109.48 382.869 109.605 383.765H108.355C108.219 383.213 107.928 382.804 107.48 382.539C107.032 382.268 106.514 382.132 105.925 382.132C105.118 382.132 104.446 382.427 103.91 383.015C103.373 383.604 103.105 384.377 103.105 385.335C103.105 386.294 103.373 387.067 103.91 387.656C104.446 388.239 105.118 388.531 105.925 388.531C106.545 388.531 107.074 388.377 107.511 388.07C107.949 387.763 108.23 387.33 108.355 386.773H109.605C109.48 387.69 109.076 388.408 108.394 388.929C107.717 389.445 106.894 389.703 105.925 389.703ZM111.649 389.46V377.539H112.899V382.257C113.144 381.903 113.498 381.601 113.962 381.351C114.431 381.096 114.962 380.968 115.556 380.968C116.519 380.968 117.261 381.252 117.782 381.82C118.303 382.388 118.564 383.117 118.564 384.007V389.46H117.314V384.226C117.314 383.601 117.136 383.096 116.782 382.71C116.428 382.325 115.939 382.132 115.314 382.132C114.652 382.132 114.084 382.361 113.61 382.82C113.136 383.278 112.899 383.848 112.899 384.531V389.46H111.649ZM121.132 389.46V381.203H122.335V382.648C122.507 382.21 122.804 381.848 123.225 381.562C123.647 381.27 124.119 381.125 124.639 381.125C124.983 381.125 125.296 381.161 125.577 381.234V382.484C125.254 382.432 124.952 382.406 124.671 382.406C123.988 382.406 123.434 382.669 123.007 383.195C122.58 383.721 122.366 384.455 122.366 385.398V389.46H121.132ZM127.473 389.46V381.203H128.723V389.46H127.473ZM127.2 378.726C127.2 378.481 127.288 378.27 127.465 378.093C127.642 377.916 127.853 377.828 128.098 377.828C128.338 377.828 128.543 377.916 128.715 378.093C128.892 378.27 128.981 378.481 128.981 378.726C128.981 378.966 128.892 379.171 128.715 379.343C128.543 379.515 128.338 379.601 128.098 379.601C127.853 379.601 127.642 379.515 127.465 379.343C127.288 379.171 127.2 378.966 127.2 378.726ZM134.901 389.703C134.322 389.703 133.783 389.601 133.283 389.398C132.789 389.19 132.359 388.901 131.994 388.531C131.635 388.161 131.351 387.703 131.143 387.156C130.94 386.604 130.838 385.997 130.838 385.335C130.838 384.039 131.221 382.986 131.986 382.179C132.752 381.372 133.723 380.968 134.901 380.968C135.848 380.968 136.666 381.21 137.354 381.695C138.046 382.179 138.455 382.869 138.58 383.765H137.33C137.195 383.213 136.903 382.804 136.455 382.539C136.007 382.268 135.489 382.132 134.901 382.132C134.093 382.132 133.421 382.427 132.885 383.015C132.348 383.604 132.08 384.377 132.08 385.335C132.08 386.294 132.348 387.067 132.885 387.656C133.421 388.239 134.093 388.531 134.901 388.531C135.52 388.531 136.049 388.377 136.486 388.07C136.924 387.763 137.205 387.33 137.33 386.773H138.58C138.455 387.69 138.052 388.408 137.369 388.929C136.692 389.445 135.869 389.703 134.901 389.703ZM140.625 389.46V377.539H141.875V382.257C142.12 381.903 142.474 381.601 142.937 381.351C143.406 381.096 143.937 380.968 144.531 380.968C145.495 380.968 146.237 381.252 146.758 381.82C147.279 382.388 147.539 383.117 147.539 384.007V389.46H146.289V384.226C146.289 383.601 146.112 383.096 145.758 382.71C145.404 382.325 144.914 382.132 144.289 382.132C143.627 382.132 143.06 382.361 142.586 382.82C142.112 383.278 141.875 383.848 141.875 384.531V389.46H140.625ZM152.951 389.617C152.607 389.617 152.289 389.572 151.998 389.484C151.706 389.395 151.438 389.257 151.193 389.07C150.953 388.877 150.763 388.611 150.623 388.273C150.487 387.929 150.42 387.526 150.42 387.062V382.328H148.818V381.203H150.42V379.046L151.67 378.406V381.203H153.81V382.328H151.67V387.015C151.67 387.515 151.797 387.882 152.052 388.117C152.308 388.351 152.654 388.468 153.091 388.468C153.482 388.468 153.813 388.427 154.084 388.343V389.46C153.766 389.565 153.388 389.617 152.951 389.617Z" fill="#4D5761"/>
<g filter="url(#filter1_d_2053_1253)">
<rect x="64" y="464.46" width="124" height="48" rx="12" fill="#0F2FB8"/>
<rect x="64.5" y="464.96" width="123" height="47" rx="11.5" stroke="#0F2FB8"/>
<path d="M105.972 486.023C105.919 485.527 105.695 485.14 105.301 484.864C104.911 484.587 104.403 484.449 103.778 484.449C103.339 484.449 102.962 484.515 102.648 484.648C102.333 484.781 102.093 484.96 101.926 485.188C101.759 485.415 101.674 485.674 101.67 485.966C101.67 486.209 101.725 486.419 101.835 486.597C101.949 486.775 102.102 486.926 102.295 487.051C102.489 487.173 102.703 487.275 102.938 487.358C103.172 487.442 103.409 487.512 103.648 487.568L104.739 487.841C105.178 487.943 105.6 488.082 106.006 488.256C106.415 488.43 106.78 488.65 107.102 488.915C107.428 489.18 107.686 489.5 107.875 489.875C108.064 490.25 108.159 490.69 108.159 491.193C108.159 491.875 107.985 492.476 107.636 492.995C107.288 493.51 106.784 493.913 106.125 494.205C105.47 494.493 104.676 494.637 103.744 494.637C102.839 494.637 102.053 494.496 101.386 494.216C100.723 493.936 100.205 493.527 99.8295 492.989C99.4583 492.451 99.2576 491.796 99.2273 491.023H101.301C101.331 491.428 101.456 491.765 101.676 492.034C101.896 492.303 102.182 492.504 102.534 492.637C102.89 492.769 103.288 492.835 103.727 492.835C104.186 492.835 104.587 492.767 104.932 492.631C105.28 492.491 105.553 492.298 105.75 492.051C105.947 491.801 106.047 491.51 106.051 491.176C106.047 490.873 105.958 490.623 105.784 490.426C105.61 490.226 105.366 490.059 105.051 489.926C104.741 489.79 104.377 489.669 103.96 489.563L102.636 489.222C101.678 488.976 100.92 488.602 100.364 488.102C99.8106 487.599 99.5341 486.93 99.5341 486.097C99.5341 485.411 99.7197 484.811 100.091 484.296C100.466 483.781 100.975 483.381 101.619 483.097C102.263 482.809 102.992 482.665 103.807 482.665C104.633 482.665 105.356 482.809 105.977 483.097C106.602 483.381 107.093 483.777 107.449 484.284C107.805 484.788 107.989 485.368 108 486.023H105.972ZM115.51 490.79V485.733H117.567V494.46H115.572V492.909H115.482C115.285 493.398 114.961 493.798 114.51 494.108C114.063 494.419 113.512 494.574 112.857 494.574C112.285 494.574 111.779 494.447 111.339 494.193C110.904 493.936 110.563 493.563 110.317 493.074C110.071 492.582 109.947 491.987 109.947 491.29V485.733H112.004V490.972C112.004 491.525 112.156 491.964 112.459 492.29C112.762 492.616 113.16 492.779 113.652 492.779C113.955 492.779 114.249 492.705 114.533 492.557C114.817 492.409 115.05 492.19 115.232 491.898C115.417 491.602 115.51 491.233 115.51 490.79ZM119.773 494.46V482.824H121.83V487.176H121.915C122.021 486.964 122.17 486.739 122.364 486.5C122.557 486.258 122.818 486.051 123.148 485.881C123.477 485.707 123.898 485.62 124.409 485.62C125.083 485.62 125.691 485.792 126.233 486.137C126.778 486.477 127.21 486.983 127.528 487.654C127.85 488.32 128.011 489.138 128.011 490.108C128.011 491.067 127.854 491.881 127.54 492.551C127.225 493.222 126.797 493.733 126.256 494.085C125.714 494.438 125.1 494.614 124.415 494.614C123.915 494.614 123.5 494.531 123.17 494.364C122.841 494.197 122.576 493.996 122.375 493.762C122.178 493.523 122.025 493.298 121.915 493.085H121.795V494.46H119.773ZM121.79 490.097C121.79 490.661 121.869 491.156 122.028 491.58C122.191 492.004 122.424 492.335 122.727 492.574C123.034 492.809 123.405 492.926 123.841 492.926C124.295 492.926 124.676 492.805 124.983 492.563C125.29 492.317 125.521 491.981 125.676 491.557C125.835 491.129 125.915 490.642 125.915 490.097C125.915 489.555 125.837 489.074 125.682 488.654C125.527 488.233 125.295 487.904 124.989 487.665C124.682 487.426 124.299 487.307 123.841 487.307C123.402 487.307 123.028 487.423 122.722 487.654C122.415 487.885 122.182 488.209 122.023 488.625C121.867 489.042 121.79 489.532 121.79 490.097ZM129.76 494.46V485.733H131.726V487.216H131.828C132.01 486.716 132.311 486.326 132.732 486.046C133.152 485.762 133.654 485.62 134.237 485.62C134.828 485.62 135.326 485.763 135.732 486.051C136.141 486.335 136.429 486.724 136.595 487.216H136.686C136.879 486.731 137.205 486.345 137.663 486.057C138.125 485.765 138.673 485.62 139.305 485.62C140.108 485.62 140.764 485.873 141.271 486.381C141.779 486.888 142.033 487.629 142.033 488.602V494.46H139.97V488.921C139.97 488.379 139.826 487.983 139.538 487.733C139.25 487.479 138.898 487.352 138.482 487.352C137.985 487.352 137.597 487.508 137.317 487.818C137.04 488.125 136.902 488.525 136.902 489.017V494.46H134.885V488.835C134.885 488.385 134.749 488.025 134.476 487.756C134.207 487.487 133.855 487.352 133.419 487.352C133.124 487.352 132.855 487.428 132.612 487.58C132.37 487.727 132.177 487.938 132.033 488.21C131.889 488.479 131.817 488.794 131.817 489.154V494.46H129.76ZM144.119 494.46V485.733H146.176V494.46H144.119ZM145.153 484.495C144.828 484.495 144.547 484.387 144.312 484.171C144.078 483.951 143.96 483.688 143.96 483.381C143.96 483.07 144.078 482.807 144.312 482.591C144.547 482.371 144.828 482.262 145.153 482.262C145.483 482.262 145.763 482.371 145.994 482.591C146.229 482.807 146.347 483.07 146.347 483.381C146.347 483.688 146.229 483.951 145.994 484.171C145.763 484.387 145.483 484.495 145.153 484.495ZM152.649 485.733V487.324H147.632V485.733H152.649ZM148.871 483.642H150.928V491.835C150.928 492.112 150.969 492.324 151.053 492.472C151.14 492.616 151.253 492.714 151.393 492.767C151.534 492.82 151.689 492.847 151.859 492.847C151.988 492.847 152.106 492.837 152.212 492.818C152.321 492.799 152.405 492.782 152.462 492.767L152.808 494.375C152.698 494.413 152.541 494.455 152.337 494.5C152.136 494.546 151.89 494.572 151.598 494.58C151.083 494.595 150.619 494.517 150.206 494.347C149.793 494.173 149.465 493.904 149.223 493.54C148.984 493.176 148.867 492.722 148.871 492.176V483.642Z" fill="white"/>
</g>
</g>
<defs>
<filter id="filter0_d_2053_1253" x="0" y="0.460449" width="606" height="600" filterUnits="userSpaceOnUse" color-interpolation-filters="sRGB">
<feFlood flood-opacity="0" result="BackgroundImageFix"/>
<feColorMatrix in="SourceAlpha" type="matrix" values="0 0 0 0 0 0 0 0 0 0 0 0 0 0 0 0 0 0 127 0" result="hardAlpha"/>
<feOffset dy="24"/>
<feGaussianBlur stdDeviation="16"/>
<feComposite in2="hardAlpha" operator="out"/>
<feColorMatrix type="matrix" values="0 0 0 0 0 0 0 0 0 0 0 0 0 0 0 0 0 0 0.12 0"/>
<feBlend mode="normal" in2="BackgroundImageFix" result="effect1_dropShadow_2053_1253"/>
<feBlend mode="normal" in="SourceGraphic" in2="effect1_dropShadow_2053_1253" result="shape"/>
</filter>
<filter id="filter1_d_2053_1253" x="62" y="463.46" width="128" height="52" filterUnits="userSpaceOnUse" color-interpolation-filters="sRGB">
<feFlood flood-opacity="0" result="BackgroundImageFix"/>
<feColorMatrix in="SourceAlpha" type="matrix" values="0 0 0 0 0 0 0 0 0 0 0 0 0 0 0 0 0 0 127 0" result="hardAlpha"/>
<feOffset dy="1"/>
<feGaussianBlur stdDeviation="1"/>
<feComposite in2="hardAlpha" operator="out"/>
<feColorMatrix type="matrix" values="0 0 0 0 0.0627451 0 0 0 0 0.0941176 0 0 0 0 0.156863 0 0 0 0.05 0"/>
<feBlend mode="normal" in2="BackgroundImageFix" result="effect1_dropShadow_2053_1253"/>
<feBlend mode="normal" in="SourceGraphic" in2="effect1_dropShadow_2053_1253" result="shape"/>
</filter>
</defs>
</svg>
