<svg width="120" height="121" viewBox="0 0 120 121" fill="none" xmlns="http://www.w3.org/2000/svg">
<rect y="0.460449" width="120" height="120" rx="60" fill="#0F2FB8"/>
<path d="M46.8438 88.4292C41.6979 88.4292 37.75 86.3354 35 82.1479C32.2708 77.9396 30.9062 72.075 30.9062 64.5542C30.9062 57.0125 32.2708 51.1063 35 46.8354C37.75 42.5646 41.6979 40.4292 46.8438 40.4292C51.9479 40.4292 55.875 42.575 58.625 46.8667C61.3958 51.1584 62.7812 57.0542 62.7812 64.5542C62.7812 72.0542 61.3958 77.9084 58.625 82.1167C55.875 86.325 51.9479 88.4292 46.8438 88.4292ZM35.9688 64.5542C35.9688 70.7625 36.9271 75.5229 38.8438 78.8354C40.7604 82.1479 43.4271 83.8042 46.8438 83.8042C50.1979 83.8042 52.8333 82.1479 54.75 78.8354C56.6875 75.5021 57.6562 70.7417 57.6562 64.5542C57.6562 58.3459 56.6875 53.5438 54.75 50.1479C52.8333 46.7313 50.1979 45.0229 46.8438 45.0229C43.4479 45.0229 40.7812 46.7209 38.8438 50.1167C36.9271 53.5125 35.9688 58.325 35.9688 64.5542ZM80.7812 87.4604V47.5229L69.5938 52.7729V47.6479L82.0625 41.3667H85.8438V87.4604H80.7812Z" fill="white"/>
</svg>
