<svg width="120" height="121" viewBox="0 0 120 121" fill="none" xmlns="http://www.w3.org/2000/svg">
<rect y="0.460449" width="120" height="120" rx="60" fill="#F9FAFB"/>
<path d="M40.8438 88.4292C35.6979 88.4292 31.75 86.3354 29 82.1479C26.2708 77.9396 24.9062 72.075 24.9062 64.5542C24.9062 57.0125 26.2708 51.1063 29 46.8354C31.75 42.5646 35.6979 40.4292 40.8438 40.4292C45.9479 40.4292 49.875 42.575 52.625 46.8667C55.3958 51.1584 56.7812 57.0542 56.7812 64.5542C56.7812 72.0542 55.3958 77.9084 52.625 82.1167C49.875 86.325 45.9479 88.4292 40.8438 88.4292ZM29.9688 64.5542C29.9688 70.7625 30.9271 75.5229 32.8438 78.8354C34.7604 82.1479 37.4271 83.8042 40.8438 83.8042C44.1979 83.8042 46.8333 82.1479 48.75 78.8354C50.6875 75.5021 51.6562 70.7417 51.6562 64.5542C51.6562 58.3459 50.6875 53.5438 48.75 50.1479C46.8333 46.7313 44.1979 45.0229 40.8438 45.0229C37.4479 45.0229 34.7812 46.7209 32.8438 50.1167C30.9271 53.5125 29.9688 58.325 29.9688 64.5542ZM78.6562 88.4292C74.0729 88.4292 70.3646 87.0125 67.5312 84.1792C64.7188 81.325 63.3958 77.7938 63.5625 73.5854H68.5625C68.5625 76.5646 69.5 79.0334 71.375 80.9917C73.25 82.95 75.7292 83.9292 78.8125 83.9292C81.625 83.9292 84.0625 83.0438 86.125 81.2729C88.1875 79.4813 89.2188 77.1688 89.2188 74.3354C89.2188 71.4604 88.3021 69.0854 86.4688 67.2104C84.6354 65.3146 82.0833 64.3667 78.8125 64.3667C76.9792 64.3667 75.2917 64.7938 73.75 65.6479L71.5 62.1167L86.5938 46.1167H64.8438V41.3667H94.2188V45.3354L79.5625 60.2104H79.6875C81.9375 60.2104 83.9896 60.5959 85.8438 61.3667C87.7188 62.1375 89.25 63.1792 90.4375 64.4917C91.6458 65.7834 92.5729 67.2729 93.2188 68.9604C93.8854 70.6479 94.2188 72.4396 94.2188 74.3354C94.2188 77.0229 93.5104 79.45 92.0938 81.6167C90.6771 83.7834 88.7812 85.4604 86.4062 86.6479C84.0312 87.8354 81.4479 88.4292 78.6562 88.4292Z" fill="#0A1F7B"/>
</svg>
