<svg width="120" height="121" viewBox="0 0 120 121" fill="none" xmlns="http://www.w3.org/2000/svg">
<rect y="0.460449" width="120" height="120" rx="60" fill="#F9FAFB"/>
<path d="M42.3438 88.4292C37.1979 88.4292 33.25 86.3354 30.5 82.1479C27.7708 77.9396 26.4062 72.075 26.4062 64.5542C26.4062 57.0125 27.7708 51.1063 30.5 46.8354C33.25 42.5646 37.1979 40.4292 42.3438 40.4292C47.4479 40.4292 51.375 42.575 54.125 46.8667C56.8958 51.1584 58.2812 57.0542 58.2812 64.5542C58.2812 72.0542 56.8958 77.9084 54.125 82.1167C51.375 86.325 47.4479 88.4292 42.3438 88.4292ZM31.4688 64.5542C31.4688 70.7625 32.4271 75.5229 34.3438 78.8354C36.2604 82.1479 38.9271 83.8042 42.3438 83.8042C45.6979 83.8042 48.3333 82.1479 50.25 78.8354C52.1875 75.5021 53.1562 70.7417 53.1562 64.5542C53.1562 58.3459 52.1875 53.5438 50.25 50.1479C48.3333 46.7313 45.6979 45.0229 42.3438 45.0229C38.9479 45.0229 36.2812 46.7209 34.3438 50.1167C32.4271 53.5125 31.4688 58.325 31.4688 64.5542ZM65.7188 87.4604V83.4917L83.125 64.5542C84.1042 63.4917 84.9062 62.5438 85.5312 61.7104C86.1771 60.8563 86.7917 59.7209 87.375 58.3042C87.9583 56.8875 88.25 55.45 88.25 53.9917C88.25 51.4709 87.4479 49.3667 85.8438 47.6792C84.2396 45.9917 82.1979 45.1479 79.7188 45.1479C76.8229 45.1479 74.4583 46.1688 72.625 48.2104C70.8125 50.2313 69.9583 52.7313 70.0625 55.7104H65C64.875 51.3771 66.2083 47.7521 69 44.8354C71.8125 41.8979 75.4062 40.4292 79.7812 40.4292C83.6979 40.4292 86.9479 41.6792 89.5312 44.1792C92.1354 46.6584 93.4375 49.9084 93.4375 53.9292C93.4375 55.1375 93.3021 56.3146 93.0312 57.4604C92.7604 58.6063 92.4583 59.5854 92.125 60.3979C91.7917 61.1896 91.3125 62.0438 90.6875 62.9604C90.0833 63.8771 89.5833 64.5646 89.1875 65.0229C88.8125 65.4813 88.2812 66.0959 87.5938 66.8667L72.875 82.8667H94.125V87.4604H65.7188Z" fill="#0A1F7B"/>
</svg>
