<svg width="50" height="51" viewBox="0 0 50 51" fill="none" xmlns="http://www.w3.org/2000/svg">
<rect y="0.503906" width="50" height="50" rx="16" fill="white"/>
<path d="M19.2603 34.8914H19.0003C18.0573 34.8914 17.5863 34.8914 17.2933 34.5984C17.0003 34.3074 17.0003 33.8354 17.0003 32.8924V31.7804C17.0003 31.2624 17.0003 31.0034 17.1333 30.7714C17.2663 30.5404 17.4673 30.4234 17.8693 30.1894C20.5153 28.6504 24.2723 27.7844 26.7793 29.2794C26.9473 29.3804 27.0993 29.5024 27.2293 29.6474C27.3636 29.7946 27.4671 29.9672 27.5336 30.155C27.6001 30.3429 27.6283 30.5421 27.6165 30.741C27.6048 30.9399 27.5533 31.1344 27.4652 31.3131C27.377 31.4918 27.254 31.6511 27.1033 31.7814C26.9831 31.8956 26.8364 31.9781 26.6763 32.0214C26.7963 32.0074 26.9113 31.9914 27.0213 31.9744C27.9323 31.8294 28.6973 31.3414 29.3973 30.8124L31.2053 29.4474C31.5278 29.2128 31.9164 29.0864 32.3153 29.0864C32.7141 29.0864 33.1027 29.2128 33.4253 29.4474C33.9983 29.8804 34.1743 30.5934 33.8113 31.1754C33.3883 31.8534 32.7923 32.7204 32.2203 33.2504C31.6473 33.7804 30.7943 34.2544 30.0983 34.5904C29.3263 34.9634 28.4743 35.1774 27.6073 35.3184C25.8493 35.6024 24.0173 35.5584 22.2773 35.2004C21.2846 34.9963 20.2738 34.8921 19.2603 34.8914ZM23.8613 16.8664C24.3683 15.9574 24.6213 15.5034 25.0003 15.5034C25.3793 15.5034 25.6323 15.9574 26.1393 16.8664L26.2693 17.1014C26.4143 17.3604 26.4863 17.4894 26.5983 17.5744C26.7103 17.6594 26.8503 17.6914 27.1303 17.7544L27.3843 17.8124C28.3683 18.0344 28.8603 18.1464 28.9773 18.5224C29.0943 18.8984 28.7593 19.2914 28.0883 20.0754L27.9143 20.2784C27.7243 20.5014 27.6293 20.6124 27.5863 20.7504C27.5433 20.8884 27.5573 21.0374 27.5863 21.3344L27.6123 21.6044C27.7143 22.6514 27.7643 23.1744 27.4583 23.4074C27.1523 23.6404 26.6913 23.4274 25.7703 23.0034L25.5313 22.8934C25.2703 22.7734 25.1393 22.7134 25.0003 22.7134C24.8613 22.7134 24.7303 22.7734 24.4693 22.8934L24.2303 23.0034C23.3103 23.4284 22.8483 23.6404 22.5423 23.4074C22.2363 23.1744 22.2863 22.6514 22.3883 21.6054L22.4143 21.3344C22.4433 21.0374 22.4573 20.8884 22.4143 20.7504C22.3713 20.6124 22.2763 20.5004 22.0863 20.2784L21.9123 20.0754C21.2423 19.2914 20.9063 18.8984 21.0233 18.5224C21.1403 18.1464 21.6323 18.0344 22.6163 17.8124L22.8703 17.7544C23.1503 17.6914 23.2903 17.6594 23.4023 17.5744C23.5143 17.4894 23.5863 17.3604 23.7303 17.1014L23.8613 16.8664ZM32.4303 21.1854C32.6843 20.7304 32.8103 20.5034 33.0003 20.5034C33.1903 20.5034 33.3163 20.7304 33.5703 21.1854L33.6353 21.3024C33.7073 21.4324 33.7433 21.4964 33.7993 21.5394C33.8553 21.5814 33.9253 21.5974 34.0653 21.6294L34.1923 21.6574C34.6843 21.7694 34.9303 21.8244 34.9883 22.0134C35.0473 22.2014 34.8793 22.3974 34.5443 22.7894L34.4573 22.8904C34.3623 23.0024 34.3143 23.0584 34.2933 23.1274C34.2713 23.1954 34.2793 23.2704 34.2933 23.4194L34.3063 23.5544C34.3563 24.0774 34.3823 24.3394 34.2293 24.4554C34.0763 24.5714 33.8463 24.4654 33.3853 24.2534L33.2653 24.1984C33.1353 24.1384 33.0693 24.1084 33.0003 24.1084C32.9303 24.1084 32.8653 24.1384 32.7343 24.1984L32.6153 24.2534C32.1553 24.4654 31.9253 24.5714 31.7713 24.4554C31.6183 24.3394 31.6433 24.0774 31.6943 23.5544L31.7073 23.4194C31.7213 23.2694 31.7293 23.1954 31.7073 23.1274C31.6863 23.0574 31.6383 23.0024 31.5433 22.8904L31.4563 22.7894C31.1213 22.3974 30.9533 22.2014 31.0123 22.0134C31.0703 21.8244 31.3163 21.7694 31.8083 21.6574L31.9353 21.6294C32.0753 21.5974 32.1453 21.5814 32.2013 21.5394C32.2573 21.4964 32.2933 21.4314 32.3653 21.3024L32.4303 21.1854ZM16.4303 21.1854C16.6853 20.7304 16.8103 20.5034 17.0003 20.5034C17.1903 20.5034 17.3163 20.7304 17.5703 21.1854L17.6353 21.3024C17.7073 21.4324 17.7433 21.4964 17.7993 21.5394C17.8553 21.5814 17.9253 21.5974 18.0653 21.6294L18.1923 21.6574C18.6843 21.7694 18.9303 21.8244 18.9893 22.0134C19.0473 22.2014 18.8793 22.3974 18.5443 22.7894L18.4573 22.8904C18.3623 23.0024 18.3143 23.0584 18.2933 23.1274C18.2713 23.1954 18.2793 23.2704 18.2933 23.4194L18.3063 23.5544C18.3563 24.0774 18.3823 24.3394 18.2293 24.4554C18.0763 24.5714 17.8453 24.4654 17.3853 24.2534L17.2653 24.1984C17.1353 24.1384 17.0693 24.1084 17.0003 24.1084C16.9303 24.1084 16.8653 24.1384 16.7343 24.1984L16.6153 24.2534C16.1553 24.4654 15.9253 24.5714 15.7713 24.4554C15.6183 24.3394 15.6433 24.0774 15.6943 23.5544L15.7073 23.4194C15.7213 23.2694 15.7293 23.1954 15.7073 23.1274C15.6863 23.0574 15.6383 23.0024 15.5433 22.8904L15.4563 22.7894C15.1213 22.3974 14.9533 22.2014 15.0113 22.0134C15.0703 21.8244 15.3163 21.7694 15.8083 21.6574L15.9353 21.6294C16.0753 21.5974 16.1453 21.5814 16.2013 21.5394C16.2573 21.4964 16.2933 21.4314 16.3653 21.3024L16.4303 21.1854Z" fill="#0F2FB8"/>
</svg>
