<svg width="30" height="30" viewBox="0 0 30 30" fill="none" xmlns="http://www.w3.org/2000/svg">
<path d="M15 0.503906C18.9782 0.503906 22.7936 2.03158 25.6066 4.75086C28.4196 7.47014 30 11.1583 30 15.0039C30 18.8495 28.4196 22.5377 25.6066 25.257C22.7936 27.9762 18.9782 29.5039 15 29.5039C11.0218 29.5039 7.20644 27.9762 4.3934 25.257C1.58035 22.5377 0 18.8495 0 15.0039C0 11.1583 1.58035 7.47014 4.3934 4.75086C7.20644 2.03158 11.0218 0.503906 15 0.503906ZM17.2498 9.40627C18.364 9.40627 19.2683 8.65854 19.2683 7.5504C19.2683 6.44227 18.3619 5.69454 17.2498 5.69454C16.1356 5.69454 15.2357 6.44227 15.2357 7.5504C15.2357 8.65854 16.1356 9.40627 17.2498 9.40627ZM17.642 21.0614C17.642 20.8397 17.7212 20.2639 17.6762 19.9367L15.9149 21.8961C15.5507 22.2668 15.0943 22.5237 14.88 22.4553C14.7828 22.4208 14.7015 22.3538 14.6509 22.2664C14.6002 22.1791 14.5834 22.0772 14.6036 21.9789L17.5391 13.0144C17.7791 11.8773 17.1191 10.8396 15.72 10.707C14.2436 10.707 12.0709 12.1549 10.7489 13.9921C10.7489 14.2116 10.706 14.7585 10.751 15.0857L12.5102 13.1242C12.8744 12.7576 13.2987 12.4987 13.513 12.5691C13.6185 12.6057 13.705 12.6809 13.7539 12.7785C13.8028 12.8761 13.8101 12.9883 13.7744 13.0911L10.8646 22.0121C10.5282 23.056 11.1646 24.0792 12.7073 24.3112C14.9786 24.3112 16.3199 22.8986 17.6441 21.0614H17.642Z" fill="#0F2FB8"/>
</svg>
