<svg width="203" height="45" viewBox="0 0 203 45" fill="none" xmlns="http://www.w3.org/2000/svg">
<path fill-rule="evenodd" clip-rule="evenodd" d="M15.0195 37.0895L24.0698 31.7132L33.12 37.0895L30.7371 26.9526L38.7283 20.1316L37.0434 19.9915L40.5233 16.5116L48.1395 17.1474L34.9974 28.35L38.9449 45L24.0698 36.1658L9.19465 45L13.118 28.35L0 17.1474L17.3062 15.7026L24.0698 0L27.4516 7.85132L29.1425 11.777L29.2752 12.0852L26.3568 15.0036L26.1277 14.4711L24.0698 9.68684L19.9538 19.2553L9.41128 20.1316L17.4024 26.9526L15.0195 37.0895Z" fill="#1199D3"/>
<path d="M40.7858 14.8479L39.1152 13.2089L41.0566 11.3054L42.6703 12.8886L43.8605 11.7219L37.4358 5.41858L36.2467 6.58522L37.8604 8.16844L35.919 10.0731L34.2485 8.43413L19.8054 22.6044L19.6672 28.5076L17.9439 30.1984C17.4214 30.711 17.1631 31.4352 17.2433 32.1628L20.3169 29.1472L26.3338 29.0116L40.7858 14.8479ZM38.8823 14.8479L31.5449 22.0468L26.9222 17.5114L28.7878 15.6789L31.1058 17.9531L32.0865 16.991L29.7685 14.7167L31.4958 13.022L33.8139 15.2962L34.7946 14.334L32.4765 12.0598L34.2529 10.3169L38.8823 14.8479Z" fill="#1433B9"/>
<path d="M61.5625 37C59.3759 37 57.5951 36.4032 56.2201 35.2096C54.8546 34.0065 54.1146 32.2734 54 30.0104H56.3203C56.3872 31.5095 56.8885 32.6984 57.8242 33.5768C58.7695 34.4457 60.0061 34.8802 61.5339 34.8802C62.7752 34.8802 63.8255 34.5651 64.6849 33.9349C65.5443 33.2951 65.974 32.3689 65.974 31.1562C65.974 30.2969 65.7161 29.5473 65.2005 28.9076C64.6944 28.2678 63.9067 27.7856 62.8372 27.4609L59.2279 26.3151C56.1532 25.3793 54.6159 23.589 54.6159 20.944C54.6159 19.76 54.9262 18.7096 55.5469 17.793C56.1771 16.8668 56.9839 16.1697 57.9674 15.7018C58.951 15.2339 60.0061 15 61.1328 15C63.0903 15 64.7088 15.5538 65.9883 16.6615C67.2773 17.7691 67.9935 19.2778 68.1367 21.1875H65.7878C65.6923 19.9271 65.2148 18.934 64.3555 18.2083C63.5056 17.4731 62.4505 17.1055 61.1901 17.1055C60.0729 17.1055 59.099 17.4444 58.2682 18.1224C57.4375 18.8003 57.0221 19.674 57.0221 20.7435C57.0221 22.4049 58.0295 23.5412 60.0443 24.1523L63.7109 25.2695C65.2483 25.7183 66.4084 26.444 67.1914 27.4466C67.9839 28.4492 68.3802 29.6858 68.3802 31.1562C68.3802 32.092 68.1845 32.9371 67.793 33.6914C67.411 34.4457 66.8954 35.0616 66.2461 35.5391C65.5968 36.0069 64.8711 36.365 64.069 36.6133C63.2669 36.8711 62.4314 37 61.5625 37Z" fill="#1199D3"/>
<path d="M78.4349 36.8424C77.8047 36.8424 77.2222 36.7613 76.6875 36.599C76.1528 36.4366 75.661 36.1836 75.2122 35.8398C74.773 35.4865 74.4245 34.9996 74.1667 34.3789C73.9184 33.7487 73.7943 33.0087 73.7943 32.1589V23.4792H70.8581V21.4167H73.7943V17.4635L76.0859 16.2891V21.4167H80.0104V23.4792H76.0859V32.0729C76.0859 32.9896 76.3199 33.6628 76.7878 34.0924C77.2556 34.5221 77.8906 34.737 78.6927 34.737C79.4089 34.737 80.0152 34.6606 80.5117 34.5078V36.556C79.9293 36.747 79.237 36.8424 78.4349 36.8424Z" fill="#1199D3"/>
<path d="M90.0508 37C87.9692 37 86.2313 36.2695 84.8372 34.8086C83.4431 33.3477 82.7461 31.4093 82.7461 28.9935C82.7461 27.7904 82.9418 26.6827 83.3333 25.6706C83.7248 24.6584 84.25 23.8134 84.9089 23.1354C85.5773 22.4575 86.3555 21.9323 87.2435 21.5599C88.1411 21.178 89.0864 20.987 90.0794 20.987C91.5404 20.987 92.8199 21.3594 93.918 22.1042C95.0256 22.8394 95.8372 23.8563 96.3529 25.1549C96.8685 26.444 97.0356 27.8763 96.8542 29.4518H84.9375C85.0234 31.2088 85.5438 32.5551 86.4987 33.4909C87.4536 34.4171 88.628 34.8802 90.0221 34.8802C91.1202 34.8802 92.0608 34.6319 92.8438 34.1354C93.6363 33.6389 94.1615 32.9323 94.4193 32.0156H96.6966C96.3624 33.553 95.5794 34.7704 94.3477 35.668C93.1254 36.556 91.6931 37 90.0508 37ZM85.0521 27.5755H94.5625C94.5243 26.1432 94.0803 25.0356 93.2305 24.2526C92.3806 23.4601 91.3207 23.0638 90.0508 23.0638C88.7904 23.0638 87.697 23.4553 86.7708 24.2383C85.8542 25.0117 85.2812 26.1241 85.0521 27.5755Z" fill="#1199D3"/>
<path d="M101.008 36.556V21.4167H103.214V24.0664C103.529 23.2643 104.073 22.6007 104.846 22.0755C105.62 21.5408 106.484 21.2734 107.439 21.2734C108.069 21.2734 108.642 21.3403 109.158 21.474V23.7656C108.566 23.6701 108.012 23.6224 107.496 23.6224C106.245 23.6224 105.228 24.1046 104.445 25.069C103.662 26.0334 103.271 27.3798 103.271 29.1081V36.556H101.008Z" fill="#1199D3"/>
<path d="M112.81 36.556V21.4167H115.016V23.5078C115.455 22.8299 116.109 22.2426 116.978 21.7461C117.856 21.24 118.854 20.987 119.971 20.987C121.738 20.987 123.099 21.5074 124.053 22.5482C125.008 23.589 125.486 24.9258 125.486 26.5586V36.556H123.194V26.9596C123.194 25.8138 122.869 24.8876 122.22 24.181C121.571 23.4744 120.673 23.1211 119.527 23.1211C118.315 23.1211 117.274 23.5412 116.405 24.3815C115.536 25.2218 115.102 26.2674 115.102 27.5182V36.556H112.81Z" fill="#1199D3"/>
<path d="M136.772 37C134.691 37 132.953 36.2695 131.559 34.8086C130.164 33.3477 129.467 31.4093 129.467 28.9935C129.467 27.7904 129.663 26.6827 130.055 25.6706C130.446 24.6584 130.971 23.8134 131.63 23.1354C132.299 22.4575 133.077 21.9323 133.965 21.5599C134.862 21.178 135.808 20.987 136.801 20.987C138.262 20.987 139.541 21.3594 140.639 22.1042C141.747 22.8394 142.559 23.8563 143.074 25.1549C143.59 26.444 143.757 27.8763 143.576 29.4518H131.659C131.745 31.2088 132.265 32.5551 133.22 33.4909C134.175 34.4171 135.349 34.8802 136.743 34.8802C137.842 34.8802 138.782 34.6319 139.565 34.1354C140.358 33.6389 140.883 32.9323 141.141 32.0156H143.418C143.084 33.553 142.301 34.7704 141.069 35.668C139.847 36.556 138.414 37 136.772 37ZM131.773 27.5755H141.284C141.246 26.1432 140.802 25.0356 139.952 24.2526C139.102 23.4601 138.042 23.0638 136.772 23.0638C135.512 23.0638 134.418 23.4553 133.492 24.2383C132.576 25.0117 132.003 26.1241 131.773 27.5755Z" fill="#1199D3"/>
<path d="M147.619 36.556V15.4297H155.755C159.011 15.4297 161.613 16.3989 163.561 18.3372C165.509 20.2661 166.483 22.8394 166.483 26.0573C166.483 29.2465 165.509 31.796 163.561 33.7057C161.613 35.6059 159.011 36.556 155.755 36.556H147.619ZM151.787 32.7174H155.755C157.703 32.7174 159.259 32.1207 160.424 30.9271C161.589 29.7335 162.171 28.1293 162.171 26.1146C162.171 24.033 161.589 22.3763 160.424 21.1445C159.259 19.9032 157.703 19.2826 155.755 19.2826H151.787V32.7174Z" fill="#1433B9"/>
<path d="M180.906 36.0547C179.703 36.6849 178.337 37 176.809 37C175.282 37 173.911 36.6849 172.699 36.0547C171.496 35.4149 170.536 34.4696 169.82 33.2188C169.104 31.9679 168.746 30.5069 168.746 28.8359C168.746 27.566 168.951 26.4154 169.362 25.3841C169.782 24.3433 170.355 23.4839 171.08 22.806C171.816 22.1185 172.67 21.5885 173.644 21.2161C174.628 20.8438 175.683 20.6576 176.809 20.6576C177.946 20.6576 179.001 20.8438 179.975 21.2161C180.958 21.5885 181.808 22.1185 182.524 22.806C183.25 23.4839 183.818 24.3433 184.229 25.3841C184.639 26.4154 184.845 27.566 184.845 28.8359C184.845 30.5165 184.487 31.9822 183.77 33.2331C183.064 34.4744 182.109 35.4149 180.906 36.0547ZM172.885 28.8359C172.885 30.2969 173.262 31.4236 174.017 32.2161C174.771 32.9991 175.702 33.3906 176.809 33.3906C177.917 33.3906 178.843 32.9991 179.588 32.2161C180.333 31.4236 180.705 30.2969 180.705 28.8359C180.705 27.3559 180.333 26.2244 179.588 25.4414C178.843 24.6584 177.917 24.2669 176.809 24.2669C175.692 24.2669 174.757 24.6584 174.002 25.4414C173.257 26.2244 172.885 27.3559 172.885 28.8359Z" fill="#1433B9"/>
<path d="M194.885 37C193.796 37 192.775 36.8186 191.82 36.4557C190.875 36.0833 190.044 35.5582 189.328 34.8802C188.612 34.2023 188.048 33.3429 187.638 32.3021C187.227 31.2613 187.022 30.1059 187.022 28.8359C187.022 27.6233 187.227 26.5013 187.638 25.4701C188.058 24.4388 188.621 23.5747 189.328 22.8776C190.034 22.1806 190.865 21.6363 191.82 21.2448C192.784 20.8533 193.806 20.6576 194.885 20.6576C196.881 20.6576 198.552 21.1875 199.898 22.2474C201.254 23.3073 202.027 24.773 202.218 26.6445H198.079C197.907 25.9093 197.525 25.3364 196.933 24.9258C196.351 24.5056 195.668 24.2956 194.885 24.2956C193.854 24.2956 192.975 24.7109 192.25 25.5417C191.524 26.3628 191.161 27.4609 191.161 28.8359C191.161 30.2014 191.524 31.3043 192.25 32.1445C192.985 32.9753 193.863 33.3906 194.885 33.3906C195.706 33.3906 196.394 33.1901 196.948 32.7891C197.511 32.3785 197.888 31.7865 198.079 31.013H202.218C202.008 32.8941 201.244 34.3646 199.927 35.4245C198.619 36.4748 196.938 37 194.885 37Z" fill="#1433B9"/>
</svg>
