<svg width="20" height="21" viewBox="0 0 20 21" fill="none" xmlns="http://www.w3.org/2000/svg">
<path d="M2.5 4.62712C2.5 3.70664 3.24619 2.96045 4.16667 2.96045H6.89937C7.25806 2.96045 7.57651 3.18997 7.68994 3.53026L8.93811 7.27479C9.06926 7.66822 8.89115 8.09821 8.52022 8.28367L6.63917 9.2242C7.55771 11.2615 9.19898 12.9027 11.2363 13.8213L12.1768 11.9402C12.3622 11.5693 12.7922 11.3912 13.1857 11.5223L16.9302 12.7705C17.2705 12.8839 17.5 13.2024 17.5 13.5611V16.2938C17.5 17.2143 16.7538 17.9604 15.8333 17.9604H15C8.09644 17.9604 2.5 12.364 2.5 5.46045V4.62712Z" stroke="#384250" stroke-width="2" stroke-linecap="round" stroke-linejoin="round"/>
</svg>
