<svg width="1440" height="527" viewBox="0 0 1440 527" fill="none" xmlns="http://www.w3.org/2000/svg">
<path fill-rule="evenodd" clip-rule="evenodd" d="M-126.793 0L12.3015 139.094C28.8988 155.692 55.8083 155.692 72.4056 139.094L181.094 30.4056C198.082 13.4178 225.625 13.4178 242.613 30.4056L351.302 139.094C367.899 155.692 394.808 155.692 411.406 139.094L520.094 30.4056C537.082 13.4178 564.625 13.4178 581.613 30.4056L690.302 139.094C706.899 155.692 733.808 155.692 750.406 139.094L859.094 30.4056C876.082 13.4178 903.625 13.4178 920.613 30.4056L1029.3 139.094C1045.9 155.692 1072.81 155.692 1089.41 139.094L1198.09 30.4056C1215.08 13.4178 1242.62 13.4178 1259.61 30.4056L1368.3 139.094C1384.9 155.692 1411.81 155.692 1428.41 139.094L1567.5 0L1568.21 0.707107L1429.11 139.801C1412.12 156.789 1384.58 156.789 1367.59 139.802L1258.91 31.1127C1242.31 14.5154 1215.4 14.5154 1198.8 31.1127L1090.11 139.801C1073.12 156.789 1045.58 156.789 1028.59 139.802L919.906 31.1127C903.308 14.5154 876.399 14.5154 859.802 31.1127L751.113 139.801C734.125 156.789 706.582 156.789 689.594 139.802L580.906 31.1127C564.308 14.5154 537.399 14.5154 520.802 31.1127L412.113 139.801C395.125 156.789 367.582 156.789 350.594 139.802L241.906 31.1127C225.308 14.5154 198.399 14.5154 181.802 31.1127L73.1127 139.801C56.1249 156.789 28.5822 156.789 11.5944 139.802L-127.5 0.707107L-126.793 0ZM-126.793 93.5L12.3015 232.594C28.8988 249.192 55.8083 249.192 72.4056 232.594L181.094 123.906C198.082 106.918 225.625 106.918 242.613 123.906L351.302 232.594C367.899 249.192 394.808 249.192 411.406 232.594L520.094 123.906C537.082 106.918 564.625 106.918 581.613 123.906L690.302 232.594C706.899 249.192 733.808 249.192 750.406 232.594L859.094 123.906C876.082 106.918 903.625 106.918 920.613 123.906L1029.3 232.594C1045.9 249.192 1072.81 249.192 1089.41 232.594L1198.09 123.906C1215.08 106.918 1242.62 106.918 1259.61 123.906L1368.3 232.594C1384.9 249.192 1411.81 249.192 1428.41 232.594L1567.5 93.5L1568.21 94.2071L1429.11 233.301C1412.12 250.289 1384.58 250.289 1367.59 233.302L1258.91 124.613C1242.31 108.015 1215.4 108.015 1198.8 124.613L1090.11 233.301C1073.12 250.289 1045.58 250.289 1028.59 233.302L919.906 124.613C903.308 108.015 876.399 108.015 859.802 124.613L751.113 233.301C734.125 250.289 706.582 250.289 689.594 233.302L580.906 124.613C564.308 108.015 537.399 108.015 520.802 124.613L412.113 233.301C395.125 250.289 367.582 250.289 350.594 233.302L241.906 124.613C225.308 108.015 198.399 108.015 181.802 124.613L73.1127 233.301C56.1249 250.289 28.5822 250.289 11.5944 233.302L-127.5 94.2071L-126.793 93.5ZM12.3015 326.094L-126.793 187L-127.5 187.707L11.5944 326.802C28.5822 343.789 56.1249 343.789 73.1127 326.801L181.802 218.113C198.399 201.515 225.308 201.515 241.906 218.113L350.594 326.802C367.582 343.789 395.125 343.789 412.113 326.801L520.802 218.113C537.399 201.515 564.308 201.515 580.906 218.113L689.594 326.802C706.582 343.789 734.125 343.789 751.113 326.801L859.802 218.113C876.399 201.515 903.308 201.515 919.906 218.113L1028.59 326.802C1045.58 343.789 1073.12 343.789 1090.11 326.801L1198.8 218.113C1215.4 201.515 1242.31 201.515 1258.91 218.113L1367.59 326.802C1384.58 343.789 1412.12 343.789 1429.11 326.801L1568.21 187.707L1567.5 187L1428.41 326.094C1411.81 342.692 1384.9 342.692 1368.3 326.094L1259.61 217.406C1242.62 200.418 1215.08 200.418 1198.09 217.406L1089.41 326.094C1072.81 342.692 1045.9 342.692 1029.3 326.094L920.613 217.406C903.625 200.418 876.082 200.418 859.094 217.406L750.406 326.094C733.808 342.692 706.899 342.692 690.302 326.094L581.613 217.406C564.625 200.418 537.082 200.418 520.094 217.406L411.406 326.094C394.808 342.692 367.899 342.692 351.302 326.094L242.613 217.406C225.625 200.418 198.082 200.418 181.094 217.406L72.4056 326.094C55.8083 342.692 28.8988 342.692 12.3015 326.094ZM-126.793 280.5L12.3015 419.594C28.8988 436.192 55.8083 436.192 72.4056 419.594L181.094 310.906C198.082 293.918 225.625 293.918 242.613 310.906L351.302 419.594C367.899 436.192 394.808 436.192 411.406 419.594L520.094 310.906C537.082 293.918 564.625 293.918 581.613 310.906L690.302 419.594C706.899 436.192 733.808 436.192 750.406 419.594L859.094 310.906C876.082 293.918 903.625 293.918 920.613 310.906L1029.3 419.594C1045.9 436.192 1072.81 436.192 1089.41 419.594L1198.09 310.906C1215.08 293.918 1242.62 293.918 1259.61 310.906L1368.3 419.594C1384.9 436.192 1411.81 436.192 1428.41 419.594L1567.5 280.5L1568.21 281.207L1429.11 420.301C1412.12 437.289 1384.58 437.289 1367.59 420.302L1258.91 311.613C1242.31 295.015 1215.4 295.015 1198.8 311.613L1090.11 420.301C1073.12 437.289 1045.58 437.289 1028.59 420.302L919.906 311.613C903.308 295.015 876.399 295.015 859.802 311.613L751.113 420.301C734.125 437.289 706.582 437.289 689.594 420.302L580.906 311.613C564.308 295.015 537.399 295.015 520.802 311.613L412.113 420.301C395.125 437.289 367.582 437.289 350.594 420.302L241.906 311.613C225.308 295.015 198.399 295.015 181.802 311.613L73.1127 420.301C56.1249 437.289 28.5822 437.289 11.5944 420.302L-127.5 281.207L-126.793 280.5ZM12.3015 513.094L-126.793 374L-127.5 374.707L11.5944 513.802C28.5822 530.789 56.1249 530.789 73.1127 513.802L181.802 405.113C198.399 388.515 225.308 388.515 241.906 405.113L350.594 513.802C367.582 530.789 395.125 530.789 412.113 513.802L520.802 405.113C537.399 388.515 564.308 388.515 580.906 405.113L689.594 513.802C706.582 530.789 734.125 530.789 751.113 513.802L859.802 405.113C876.399 388.515 903.308 388.515 919.906 405.113L1028.59 513.802C1045.58 530.789 1073.12 530.789 1090.11 513.802L1198.8 405.113C1215.4 388.515 1242.31 388.515 1258.91 405.113L1367.59 513.802C1384.58 530.789 1412.12 530.789 1429.11 513.802L1568.21 374.707L1567.5 374L1428.41 513.094C1411.81 529.692 1384.9 529.692 1368.3 513.094L1259.61 404.406C1242.62 387.418 1215.08 387.418 1198.09 404.406L1089.41 513.094C1072.81 529.692 1045.9 529.692 1029.3 513.094L920.613 404.406C903.625 387.418 876.082 387.418 859.094 404.406L750.406 513.094C733.808 529.692 706.899 529.692 690.302 513.094L581.613 404.406C564.625 387.418 537.082 387.418 520.094 404.406L411.406 513.094C394.808 529.692 367.899 529.692 351.302 513.094L242.613 404.406C225.625 387.418 198.082 387.418 181.094 404.406L72.4056 513.094C55.8083 529.692 28.8988 529.692 12.3015 513.094Z" fill="url(#paint0_linear_2093_477)" fill-opacity="0.74"/>
<defs>
<linearGradient id="paint0_linear_2093_477" x1="1182" y1="0" x2="1182" y2="527" gradientUnits="userSpaceOnUse">
<stop stop-color="#E6EFF9"/>
<stop offset="1" stop-color="#EAF3FA" stop-opacity="0"/>
</linearGradient>
</defs>
</svg>
