<svg width="1440" height="857" viewBox="0 0 1440 857" fill="none" xmlns="http://www.w3.org/2000/svg">
<path d="M1851 238.377C1652.25 10.7569 1268.66 -376.198 1324.3 -103.053C1393.85 238.377 1959.72 795.764 1568.07 499.324C1176.42 202.885 933.324 -206.532 946.154 38.4179C958.984 283.368 1237.87 554.313 1154.81 354.354C1071.75 154.394 1032.59 9.42383 1198.02 276.87C1363.46 544.315 1402.63 1017.72 1058.92 550.814C715.216 83.9087 532.221 -357.502 588.943 70.9113C645.664 499.324 1054.87 1423.14 802.324 1107.7C549.778 792.265 337.072 488.576 315.464 865.5C293.855 1242.42 452.782 2127.39 315.464 1420.14C53.5 70.9114 -344.488 393.679 -507 199.385" stroke="#3752C4" stroke-width="4"/>
</svg>
